<?xml version="1.0" standalone="no"?>
<!DOCTYPE svg PUBLIC "-//W3C//DTD SVG 20010904//EN"
 "http://www.w3.org/TR/2001/REC-SVG-20010904/DTD/svg10.dtd">
<svg version="1.0" xmlns="http://www.w3.org/2000/svg"
 width="1050.000000pt" height="1050.000000pt" viewBox="0 0 1050.000000 1050.000000"
 preserveAspectRatio="xMidYMid meet">
<metadata>
Created by potrace 1.11, written by Peter Selinger 2001-2013
</metadata>
<g transform="translate(0.000000,1050.000000) scale(0.100000,-0.100000)"
fill="#000000" stroke="none">
<path d="M5188 10399 l-3 -101 -60 -23 c-117 -44 -241 -132 -361 -256 -91 -95
-121 -133 -159 -204 -15 -27 -43 -73 -63 -102 -35 -52 -35 -53 -30 -141 l5
-89 -46 -12 c-25 -7 -72 -24 -104 -38 -66 -30 -86 -59 -117 -170 l-17 -63 66
-35 c75 -40 104 -64 146 -120 69 -93 85 -146 92 -308 6 -141 -5 -182 -27 -100
-19 68 -74 172 -117 222 -53 62 -191 151 -234 151 -78 -1 -191 -91 -204 -163
l-7 -34 -68 -7 c-111 -10 -179 -48 -243 -136 -40 -55 -45 -58 -63 -46 -11 8
-33 40 -49 71 -17 32 -47 74 -67 93 -21 20 -38 41 -38 47 0 6 14 24 30 40 36
34 38 62 7 101 -69 89 -124 108 -148 52 -17 -40 -16 -287 1 -357 11 -45 6 -83
-26 -188 -6 -21 -5 -22 24 -12 16 5 40 21 52 34 19 21 22 32 17 72 -3 26 -15
71 -27 98 -14 31 -24 81 -27 130 l-6 80 20 -25 c66 -85 143 -231 189 -360 56
-155 144 -308 262 -452 68 -84 67 -82 83 -136 7 -24 23 -53 36 -65 30 -29 29
-51 -3 -66 -32 -14 -41 -9 -49 29 -3 16 -14 39 -24 52 -10 13 -26 41 -37 63
-50 109 -155 234 -241 288 -56 36 -104 115 -132 217 l-9 35 -1 -30 c-1 -17 6
-58 15 -90 20 -76 14 -122 -23 -177 -47 -69 -48 -71 -26 -60 32 17 75 65 90
100 13 32 33 36 33 6 0 -9 49 -66 109 -127 74 -77 120 -134 146 -182 21 -38
52 -89 68 -112 34 -49 47 -53 122 -39 26 5 24 2 -15 -18 l-45 -24 30 -13 c17
-7 56 -13 88 -12 56 0 75 -10 38 -22 -10 -3 -72 -12 -137 -20 -314 -38 -645
-110 -911 -196 -147 -48 -417 -172 -443 -204 -11 -13 -10 -14 6 -9 10 4 24 10
29 15 19 13 270 101 370 129 55 15 163 42 240 60 77 18 178 43 225 56 46 13
101 24 121 24 21 0 60 5 88 12 36 8 57 8 74 1 21 -10 23 -8 23 11 -1 34 40 33
78 -3 17 -16 43 -34 59 -40 35 -13 44 -37 23 -60 -9 -10 -13 -21 -9 -24 14
-15 74 -6 93 13 23 23 27 9 10 -35 -12 -30 -10 -30 -150 -1 -61 13 -93 14
-170 6 -52 -5 -147 -15 -210 -21 -130 -12 -196 -22 -290 -43 -36 -8 -92 -17
-125 -21 -102 -11 -107 -16 -35 -36 86 -25 110 -24 154 6 27 19 50 25 89 25
29 0 68 4 87 9 20 4 43 5 53 2 27 -10 -60 -49 -125 -56 -133 -15 -388 -81
-577 -150 -68 -25 -127 -45 -132 -45 -4 0 -13 9 -19 19 -9 18 -1 25 77 69 84
47 202 102 251 117 13 4 22 9 20 11 -6 5 -164 -38 -307 -85 -92 -30 -141 -41
-187 -41 -41 0 -77 -7 -109 -21 -36 -16 -57 -19 -93 -14 -26 3 -58 2 -72 -4
-17 -6 -19 -10 -8 -10 10 -1 22 -10 28 -20 9 -18 7 -20 -29 -18 -25 1 -47 -5
-59 -16 -28 -25 -49 -21 -137 24 -44 23 -118 61 -164 85 l-85 44 45 0 c24 0
73 -9 109 -20 45 -14 94 -20 158 -20 89 0 93 1 87 20 -14 45 93 98 219 107 57
4 77 3 72 -5 -4 -6 -22 -14 -40 -17 -25 -5 -86 -46 -86 -58 0 -1 42 -2 94 -1
75 0 99 4 122 19 32 22 32 22 154 90 143 80 325 152 431 169 60 10 104 78 97
152 -4 38 -4 38 -15 14 -16 -37 -92 -118 -93 -99 0 21 54 129 78 154 34 37 92
127 92 144 1 33 27 88 78 165 29 43 56 95 61 115 15 56 24 201 14 201 -5 0
-20 -12 -34 -26 -21 -22 -25 -38 -29 -122 -4 -64 -9 -91 -14 -79 -8 17 -3 157
9 262 4 35 2 33 -15 -20 -27 -84 -43 -206 -35 -280 7 -58 5 -66 -29 -131 -64
-122 -102 -179 -171 -256 l-37 -41 -682 682 -681 681 -38 -31 c-20 -17 -37
-36 -37 -42 0 -7 305 -317 677 -690 l678 -678 -25 -20 c-61 -48 -113 -80 -225
-136 -118 -60 -121 -61 -225 -67 -173 -10 -376 -53 -438 -93 -22 -13 -31 -12
-108 13 -79 25 -86 26 -131 13 -29 -8 -86 -13 -141 -12 -90 2 -93 1 -104 -23
-15 -32 3 -66 56 -105 41 -30 110 -41 118 -18 6 19 80 -8 135 -49 29 -21 70
-47 92 -57 23 -10 41 -21 41 -26 0 -4 -28 -30 -62 -57 -38 -30 -77 -73 -98
-108 -30 -50 -34 -66 -35 -126 0 -60 -2 -68 -19 -68 -37 0 -104 -41 -128 -78
-69 -104 -61 -224 19 -307 27 -27 31 -36 16 -31 -11 4 -53 13 -94 21 -156 31
-174 37 -177 68 -4 31 -2 31 -53 16 -30 -9 -51 -9 -101 4 -35 8 -82 18 -105
22 l-42 7 -23 -47 -23 -47 24 -19 c13 -10 34 -19 47 -19 l23 0 -25 -37 c-22
-32 -25 -46 -20 -85 l5 -48 -85 0 c-148 0 -187 -17 -379 -169 -123 -98 -190
-168 -256 -269 -68 -104 -93 -185 -93 -302 1 -218 121 -392 419 -604 114 -81
232 -126 331 -126 l51 0 7 -52 c14 -112 124 -208 237 -208 45 0 50 2 63 33 24
58 127 144 228 192 108 50 192 73 297 81 l76 6 -82 -46 c-226 -123 -342 -248
-343 -366 0 -66 60 -166 115 -191 22 -10 53 -19 70 -19 47 0 15 -21 -105 -68
-58 -22 -159 -62 -225 -87 -66 -26 -123 -49 -127 -51 -6 -4 22 -87 33 -99 6
-5 38 7 114 40 17 7 64 28 105 45 41 17 100 42 130 55 94 39 92 40 117 -14 26
-54 73 -105 132 -141 22 -14 41 -28 41 -32 0 -4 -28 -23 -62 -44 -34 -21 -85
-56 -113 -79 l-51 -42 -34 23 c-19 13 -39 23 -44 23 -16 1 -114 -68 -135 -95
-46 -59 -14 -90 83 -80 72 8 91 8 169 0 41 -4 73 -1 107 10 70 23 132 20 193
-8 29 -14 65 -30 81 -36 47 -17 221 -40 311 -40 71 0 93 -4 132 -25 27 -14 76
-37 110 -51 34 -14 70 -35 80 -46 20 -22 27 -15 -226 -243 -74 -66 -161 -145
-195 -176 -160 -146 -211 -192 -336 -304 -105 -95 -302 -273 -429 -391 -12
-11 -8 -18 23 -48 20 -20 39 -36 42 -36 6 0 48 38 184 165 47 44 155 143 240
220 85 77 224 205 310 285 256 237 458 422 478 436 15 11 24 9 60 -14 23 -15
41 -30 39 -33 -1 -4 -44 -53 -95 -110 l-93 -103 31 -30 31 -31 93 100 c52 55
96 98 98 95 3 -3 30 -39 59 -80 115 -158 116 -165 52 -251 -26 -35 -53 -71
-60 -79 -7 -8 -72 -94 -145 -190 -72 -96 -200 -265 -283 -375 -204 -270 -414
-548 -510 -675 -44 -58 -85 -112 -92 -120 -7 -8 -72 -94 -144 -190 -73 -96
-207 -274 -299 -395 -91 -121 -217 -287 -279 -370 -63 -82 -117 -155 -122
-160 -5 -7 5 -22 26 -38 l33 -26 55 72 c31 40 75 97 98 127 23 30 83 109 133
175 50 66 93 122 96 125 3 3 34 43 70 90 231 304 344 451 355 464 6 6 51 65
101 131 50 66 132 174 183 240 51 66 130 170 176 230 119 156 167 219 192 251
12 16 50 65 84 109 34 44 92 121 130 170 156 206 261 341 274 355 13 12 15 -1
15 -113 l0 -127 -123 -188 c-68 -103 -162 -245 -209 -317 -47 -71 -174 -265
-283 -430 -109 -165 -230 -349 -270 -410 -40 -60 -147 -224 -239 -363 -91
-139 -166 -257 -166 -261 0 -5 16 -20 37 -32 44 -27 19 -54 196 216 213 327
497 759 676 1030 58 88 108 165 111 170 3 6 63 97 133 204 163 246 173 261
181 289 15 46 -12 19 -74 -75 -93 -142 -477 -723 -589 -893 -53 -80 -98 -149
-99 -153 -2 -4 -70 -108 -151 -230 -81 -122 -194 -293 -251 -379 -82 -126
-106 -156 -117 -147 -7 6 -13 15 -13 19 0 7 150 232 914 1374 385 574 387 579
375 609 -16 38 -16 194 0 210 8 8 11 -3 11 -46 0 -81 17 -148 46 -182 l25 -30
-5 98 c-6 113 -18 146 -100 271 -34 52 -56 97 -56 114 0 26 -16 52 -110 182
-41 57 -69 125 -56 138 4 4 17 -4 28 -18 65 -80 78 -93 77 -74 0 10 -8 41 -17
69 -19 57 -29 63 -152 100 -130 39 -212 72 -313 127 -209 115 -214 117 -324
125 -100 8 -102 8 -85 -11 9 -10 40 -30 67 -43 l50 -23 -85 4 c-47 2 -102 9
-123 16 -43 13 -84 50 -93 85 -6 23 -8 24 -72 18 -37 -3 -123 -19 -192 -34
-69 -15 -126 -27 -127 -25 -6 6 219 149 277 176 76 35 101 37 118 10 9 -15 24
-20 60 -21 26 0 41 -3 34 -6 -7 -3 -20 -19 -28 -35 -16 -31 -16 -31 8 -24 12
4 50 10 84 13 49 4 66 2 89 -13 23 -15 49 -19 115 -20 73 0 94 -5 150 -31 78
-37 264 -97 282 -91 7 3 -5 11 -27 18 -61 20 -197 93 -243 130 -34 27 -40 36
-30 47 16 19 57 11 105 -21 36 -24 83 -38 276 -82 43 -9 80 -21 83 -26 3 -4
12 -8 21 -8 14 0 14 2 -1 19 -26 29 -106 59 -198 77 -114 21 -114 21 -154 64
-56 60 -83 61 -163 6 -71 -49 -128 -60 -165 -33 -17 12 -14 15 30 27 27 8 60
20 74 27 14 7 30 13 36 13 6 0 29 16 52 35 28 25 43 47 48 70 5 30 10 35 34
35 21 0 30 6 35 23 10 32 51 72 95 92 36 16 38 19 27 42 -9 20 -7 27 10 44 26
26 53 15 76 -33 l17 -33 0 47 c0 61 -17 97 -49 105 -45 11 -140 62 -150 82 -8
14 -6 22 8 35 16 15 21 14 72 -14 57 -31 97 -37 131 -19 19 10 18 12 -21 30
-69 30 -102 59 -123 106 -33 76 -82 50 -148 -79 -50 -101 -112 -183 -165 -220
-22 -16 -99 -58 -171 -93 l-130 -65 -60 18 c-45 14 -62 24 -72 45 l-13 28 -20
-26 c-21 -25 -28 -73 -15 -94 11 -17 -5 -13 -49 12 -55 31 -66 57 -63 149 2
42 0 74 -5 71 -18 -11 -47 -85 -47 -120 0 -28 -3 -34 -10 -23 -26 40 -3 149
47 224 l25 39 -33 -7 c-51 -10 -159 -20 -159 -14 0 18 34 80 66 123 46 61 73
84 96 85 15 0 16 -3 6 -27 -7 -16 -23 -43 -37 -61 -13 -18 -21 -35 -18 -39 7
-6 54 40 110 110 70 86 209 181 439 300 111 58 135 66 190 69 l63 3 3 38 c2
20 6 37 9 37 3 0 18 -11 35 -25 36 -31 57 -31 110 -4 38 19 47 20 97 9 75 -16
85 -22 89 -54 l3 -27 -36 20 c-29 16 -42 17 -66 9 -40 -14 -45 -27 -11 -26 54
2 100 -42 120 -113 10 -37 6 -89 -7 -89 -4 0 -15 18 -25 40 -38 86 -137 132
-240 110 -30 -6 -66 -20 -79 -31 -14 -10 -35 -19 -47 -19 -13 0 -55 -18 -95
-40 -40 -22 -86 -40 -103 -40 -31 0 -130 -52 -177 -93 -41 -35 -155 -240 -155
-279 0 -10 -11 -22 -24 -28 -50 -19 -62 -91 -22 -137 l24 -28 -5 46 c-6 50 11
76 20 31 7 -32 46 -94 65 -100 7 -2 17 10 23 27 11 31 12 31 82 31 44 1 82 6
97 15 24 14 24 15 -15 9 -31 -4 -44 -2 -55 10 -21 27 1 38 87 46 43 4 87 11
98 16 81 32 157 127 195 245 l22 67 -20 45 c-17 38 -19 53 -10 84 11 43 40 79
69 86 17 5 18 3 4 -16 -8 -12 -15 -33 -15 -47 0 -14 4 -20 8 -14 14 21 51 34
96 34 54 0 93 -29 102 -77 5 -28 3 -33 -25 -48 -18 -9 -54 -19 -80 -22 -43 -5
-50 -3 -69 22 -12 15 -22 35 -22 44 0 14 -2 14 -10 1 -32 -49 13 -93 104 -105
84 -11 90 -14 72 -34 -26 -28 -19 -41 22 -41 33 0 76 -19 92 -41 9 -11 89 -49
105 -49 35 0 -3 -56 -48 -70 -26 -8 -21 -8 28 -4 50 4 65 2 83 -13 l23 -18
-17 -69 c-15 -59 -16 -81 -6 -150 6 -44 16 -101 22 -126 6 -25 16 -73 22 -108
12 -60 11 -63 -11 -79 -23 -15 -23 -17 -6 -30 11 -7 34 -13 53 -13 30 0 33 2
26 23 -3 12 -12 33 -19 47 -15 31 -27 335 -17 435 l7 70 23 -22 c12 -13 22
-35 22 -52 0 -16 7 -34 15 -41 13 -11 12 -15 -9 -31 -32 -25 -41 -68 -26 -130
11 -46 14 -49 29 -35 16 15 19 10 36 -56 10 -39 28 -90 40 -114 21 -42 22 -44
4 -60 -11 -10 -19 -29 -19 -44 0 -26 1 -26 63 -22 44 3 83 -2 129 -16 58 -17
68 -18 92 -5 35 18 57 13 130 -34 l59 -38 -106 -3 c-86 -2 -113 1 -139 15 -26
13 -66 18 -188 20 -108 3 -150 1 -140 -6 8 -6 35 -13 60 -17 62 -8 148 -33
155 -45 15 -24 -193 3 -243 32 -30 17 -36 18 -89 4 -32 -8 -65 -15 -75 -15 -9
0 -19 -4 -22 -8 -8 -14 213 -55 488 -92 44 -6 156 -13 248 -17 155 -6 168 -8
168 -25 0 -10 7 -21 16 -25 13 -5 12 -9 -8 -30 -27 -29 -83 -67 -115 -77 -21
-7 -23 -4 -23 30 l0 38 -28 -27 c-32 -30 -48 -33 -76 -12 -17 13 -22 13 -35 1
-16 -15 -15 -15 -411 94 -355 98 -451 128 -577 179 -29 11 -53 19 -53 17 0 -7
91 -58 200 -112 159 -79 241 -106 625 -204 263 -67 399 -91 548 -97 75 -3 137
-9 137 -13 0 -17 -57 -30 -133 -31 -45 -1 -73 -4 -63 -6 27 -7 99 -53 93 -60
-3 -2 -14 0 -25 6 -49 26 -82 10 -112 -54 -28 -59 -89 -141 -145 -195 -55 -54
-151 -173 -174 -217 -13 -26 -31 -30 -31 -8 0 34 -68 135 -91 135 -4 0 8 -30
28 -67 31 -60 34 -74 28 -118 -3 -27 -8 -68 -11 -90 l-5 -40 32 60 c21 39 62
89 124 147 51 49 118 124 148 167 53 73 137 226 137 249 0 15 21 26 29 16 3
-5 19 -18 35 -28 l29 -19 -24 -13 c-27 -14 -41 -37 -60 -99 -6 -22 -33 -63
-60 -91 -26 -28 -69 -84 -95 -124 -48 -74 -160 -291 -218 -423 -48 -110 -123
-249 -152 -282 l-25 -30 5 75 c3 42 16 108 30 149 34 97 34 133 0 160 -38 30
-56 28 -47 -6 12 -42 9 -184 -6 -313 -19 -170 -3 -250 50 -250 45 0 137 119
124 160 -3 10 -17 26 -31 35 -34 22 -25 45 42 118 30 33 58 73 63 95 14 49 14
65 -1 56 -8 -5 -9 -2 -5 10 4 10 10 29 13 42 4 14 13 24 24 24 27 0 31 -13 18
-48 -11 -27 -9 -35 17 -72 46 -66 135 -129 208 -146 46 -11 62 45 -137 -492
-47 -128 -86 -237 -86 -242 0 -8 56 -24 83 -25 4 0 46 99 93 220 46 121 102
265 124 320 21 55 44 114 50 130 l12 30 20 -40 c113 -223 344 -132 516 203
l44 87 -6 -115 c-9 -186 -49 -298 -137 -381 -28 -27 -73 -56 -106 -69 -32 -13
-59 -24 -61 -26 -2 -1 7 -36 19 -78 35 -122 97 -177 229 -208 40 -9 49 -15 44
-27 -4 -9 -9 -43 -12 -77 -5 -68 14 -119 87 -231 40 -62 216 -273 229 -273 4
-1 30 -21 57 -46 68 -61 147 -113 220 -143 50 -21 76 -25 155 -24 52 0 107 5
123 11 l27 12 0 -48 c1 -63 36 -129 88 -166 54 -38 139 -46 191 -19 64 34 76
63 101 263 9 69 28 202 46 325 5 36 17 62 45 95 67 82 82 123 87 238 l4 103
41 -3 c36 -3 42 -6 48 -33 13 -56 49 -219 79 -360 47 -216 62 -279 71 -289 4
-5 32 -1 63 9 43 14 55 22 52 34 -3 9 -11 43 -20 76 -8 33 -29 114 -46 180
-18 66 -38 145 -45 175 -7 30 -24 99 -39 154 -14 54 -26 104 -26 112 0 8 14
29 31 46 42 45 59 90 59 158 0 57 0 58 -32 64 -47 9 -95 41 -117 77 -11 18
-22 61 -26 103 -4 39 -15 106 -26 150 -10 43 -19 81 -19 84 0 3 14 -16 31 -42
51 -76 128 -155 183 -187 63 -36 121 -38 183 -7 56 28 122 98 130 139 7 37 16
29 41 -36 26 -69 111 -276 122 -300 5 -11 21 -49 35 -85 14 -36 30 -74 35 -85
5 -11 39 -94 76 -185 156 -387 185 -455 192 -461 7 -7 77 13 89 25 4 3 -3 27
-15 54 -12 26 -55 126 -95 222 -157 372 -301 709 -338 794 -37 85 -40 106 -17
106 5 0 26 8 46 17 103 49 209 180 173 216 -18 18 -13 27 15 27 24 0 25 -2 18
-33 -4 -17 -7 -36 -7 -42 0 -18 102 -182 116 -188 27 -10 30 -58 7 -89 -28
-39 -20 -60 51 -130 58 -59 94 -73 102 -40 2 9 4 98 3 197 -1 159 -3 185 -21
219 l-20 38 28 49 c16 29 27 64 27 87 0 36 -1 36 -13 12 -9 -17 -22 -26 -44
-28 -50 -5 -59 -24 -40 -85 46 -144 58 -205 55 -262 l-3 -60 -27 28 c-27 29
-34 45 -59 142 -7 27 -32 77 -55 111 -24 34 -63 103 -87 153 -25 50 -66 120
-91 157 -26 36 -57 92 -70 124 -28 69 -63 118 -128 181 -42 39 -48 50 -48 86
0 26 -8 50 -21 67 l-22 28 23 21 c16 16 24 18 27 9 11 -28 78 -150 106 -192
72 -107 223 -260 257 -260 12 0 34 -48 56 -122 8 -27 26 -56 41 -67 31 -26 52
-28 31 -3 -29 32 -48 81 -48 121 0 33 26 123 55 195 7 17 6 17 -16 6 -46 -25
-69 -62 -69 -111 0 -27 -2 -30 -15 -19 -8 7 -36 45 -62 84 -25 39 -78 103
-118 141 -39 39 -88 100 -109 136 -21 37 -51 81 -68 99 -26 29 -33 32 -71 27
l-42 -6 50 23 c56 27 61 23 -61 45 -86 16 -108 14 -139 -11 -27 -21 -28 -21
-42 -3 -7 11 -11 26 -8 33 3 8 5 18 5 24 0 6 7 8 15 4 11 -4 15 1 15 18 0 13
10 46 21 75 18 43 24 49 36 39 15 -12 15 -20 -3 -117 l-7 -34 149 6 c98 3 176
12 229 25 74 18 151 36 280 64 82 18 334 87 415 114 106 36 191 71 300 126
121 61 176 102 80 60 -102 -45 -304 -108 -520 -162 -69 -17 -154 -40 -190 -50
-76 -22 -153 -37 -266 -54 l-80 -12 -28 28 c-30 31 -59 39 -32 9 10 -11 16
-28 14 -38 -6 -30 -41 -26 -90 12 -26 19 -51 35 -56 35 -23 0 -31 26 -18 52
24 46 -14 53 -63 12 l-30 -25 -7 27 c-15 57 44 84 98 44 29 -21 32 -22 206
-11 351 23 646 65 805 116 70 23 81 36 16 19 -56 -15 -187 -17 -229 -5 -16 5
-36 2 -54 -7 -44 -22 -195 -44 -246 -36 l-45 8 40 7 c22 4 69 12 105 18 36 6
83 15 105 21 22 5 74 17 115 26 183 41 378 104 448 145 35 20 82 26 82 10 0
-28 -22 -46 -121 -97 -60 -32 -107 -59 -105 -61 9 -10 118 20 198 52 74 31 93
35 175 35 80 0 94 3 106 20 13 19 16 19 102 4 49 -8 93 -18 97 -20 4 -3 8 0 8
5 0 6 -19 24 -42 41 l-41 30 55 0 c44 0 59 4 77 23 l22 24 136 -70 c76 -38
159 -84 186 -102 l49 -33 -43 5 c-24 3 -88 13 -141 24 -53 10 -126 21 -161 25
-60 6 -65 5 -71 -14 -11 -34 -66 -80 -114 -97 -25 -8 -77 -15 -116 -15 l-71 1
47 18 c26 10 59 28 74 40 l27 21 -99 0 c-94 0 -101 -2 -144 -31 -41 -28 -128
-72 -280 -142 -154 -70 -219 -97 -265 -107 -27 -6 -60 -18 -72 -25 -23 -16
-43 -70 -43 -119 0 -29 1 -28 32 18 30 47 71 76 85 62 4 -3 -4 -14 -16 -23
-13 -9 -37 -46 -53 -82 -17 -36 -48 -85 -69 -108 -25 -28 -39 -52 -39 -70 0
-28 -26 -84 -88 -194 -55 -97 -77 -213 -52 -274 7 -18 8 -17 15 10 4 17 11 46
16 65 5 19 9 60 9 90 0 62 19 52 21 -10 0 -33 17 -88 18 -62 2 27 21 8 81 -80
113 -164 259 -380 346 -508 47 -69 127 -186 178 -260 164 -240 281 -412 371
-545 48 -71 98 -144 111 -161 23 -31 23 -32 4 -49 -18 -16 -20 -15 -47 27 -15
23 -30 45 -33 48 -3 3 -23 32 -46 65 -45 67 -141 207 -189 275 -17 25 -56 81
-86 124 -305 444 -404 587 -461 669 -31 45 -71 102 -88 127 -129 187 -155 221
-158 206 -3 -15 37 -80 129 -211 20 -27 80 -115 134 -195 112 -164 319 -465
475 -691 58 -84 140 -205 184 -268 43 -64 98 -144 122 -178 l44 -62 40 26 c22
15 40 30 40 34 0 4 -19 36 -43 71 -24 35 -95 139 -158 232 -63 93 -139 206
-169 250 -30 45 -103 151 -162 237 -58 86 -146 215 -194 285 -48 71 -161 238
-251 371 l-163 242 0 62 c0 40 5 68 14 78 8 9 39 64 69 123 72 139 121 203
215 284 105 90 143 115 275 182 l113 58 136 12 137 12 93 -63 c51 -35 185
-126 298 -202 113 -76 248 -168 300 -204 52 -35 151 -103 220 -149 69 -47 200
-136 292 -199 92 -62 173 -116 181 -119 8 -3 29 14 52 42 36 43 38 48 21 58
-9 6 -88 57 -174 113 -86 57 -157 103 -158 103 -1 0 -65 42 -143 92 -77 51
-189 124 -248 163 -60 38 -168 109 -242 157 -73 48 -135 88 -137 88 -15 0 -94
65 -94 77 0 11 -4 13 -12 5 -9 -7 -27 0 -61 24 -51 35 -50 38 15 49 21 3 51
18 69 32 31 26 31 26 82 10 71 -22 182 -30 241 -19 42 9 55 7 85 -9 45 -24 62
-24 95 2 38 30 32 52 -25 101 -28 24 -64 55 -81 71 l-31 27 -32 -35 c-18 -19
-37 -35 -43 -35 -5 0 -38 25 -73 56 -34 31 -89 69 -121 84 l-58 28 37 31 c129
109 166 168 167 268 1 63 1 63 30 63 36 0 81 28 128 78 49 53 60 78 61 132 2
97 -92 199 -289 316 -106 63 -114 69 -86 72 30 3 153 -19 222 -39 147 -43 262
-130 305 -227 22 -49 20 -48 133 -16 42 12 68 28 98 59 30 31 45 40 53 32 7
-7 10 -2 10 19 -1 16 7 50 16 77 l17 47 57 0 c137 0 291 90 489 284 157 154
224 258 252 390 35 169 -28 296 -270 549 -178 186 -303 257 -456 257 l-72 0
-26 73 c-32 87 -70 143 -108 163 -15 8 -60 20 -98 28 l-71 13 -34 -67 c-62
-124 -148 -174 -375 -218 -92 -18 -165 -30 -168 -28 -1 2 40 27 90 57 169 99
308 255 308 346 0 74 -79 171 -162 201 -47 16 -48 18 -48 57 0 67 -56 170
-129 238 -34 31 -66 57 -72 57 -23 0 -5 19 34 35 44 18 142 79 152 95 4 6 20
17 37 26 28 15 31 14 52 -5 28 -27 36 -26 94 3 59 30 115 88 110 112 -5 28
-68 46 -107 31 -23 -8 -51 -8 -113 0 -92 13 -153 6 -215 -26 l-38 -19 -35 24
c-55 38 -268 94 -360 94 -100 0 -282 42 -339 79 -10 6 2 21 47 57 214 171 441
360 441 367 1 12 -50 77 -60 77 -7 0 -128 -100 -254 -210 -234 -205 -259 -225
-280 -221 -11 2 -39 17 -63 34 l-43 31 88 89 c48 49 300 295 558 548 259 252
603 588 765 747 l295 289 -29 34 c-16 19 -33 34 -37 34 -9 0 -633 -612 -1310
-1282 -212 -211 -391 -383 -398 -383 -21 0 -114 102 -143 155 l-27 50 157 201
c221 282 210 269 310 394 16 19 52 66 81 103 l53 69 -28 29 c-15 16 -31 29
-35 29 -7 0 -38 -36 -236 -277 -378 -459 -357 -435 -370 -417 -8 11 -13 47
-13 88 0 66 -12 166 -26 226 -6 23 -7 24 -14 5 -5 -11 -9 -62 -9 -114 -1 -52
-4 -92 -7 -89 -8 8 -34 176 -34 223 -1 37 -2 39 -15 21 -18 -24 -20 -128 -4
-177 24 -68 228 -479 270 -541 l43 -63 -35 26 c-19 14 -49 50 -67 80 l-34 54
7 -48 c7 -55 28 -109 47 -124 7 -5 45 -20 83 -32 148 -49 283 -112 500 -235
89 -50 91 -51 190 -54 100 -4 100 -4 82 16 -17 19 -96 55 -142 65 -42 10 73 6
134 -4 81 -13 116 -31 167 -85 49 -53 62 -54 195 -19 51 13 122 25 157 25 l62
0 -97 -52 c-234 -124 -267 -135 -309 -103 -10 8 -36 15 -57 15 -34 0 -37 2
-27 20 6 11 25 24 43 29 l32 9 -42 1 c-23 1 -65 -4 -93 -10 -47 -10 -54 -9
-74 10 -32 30 -78 41 -167 41 -62 0 -95 6 -172 35 -253 91 -538 147 -962 187
-203 19 -272 17 -328 -10 -50 -24 -76 -23 -98 4 -11 13 -9 19 11 34 22 16 27
17 52 4 15 -8 34 -14 43 -14 17 0 21 35 5 45 -20 12 -9 25 59 70 79 52 103 56
120 18 9 -20 15 -23 23 -15 19 19 103 14 196 -12 152 -43 283 -76 383 -96 127
-26 373 -108 514 -171 11 -5 34 -13 50 -19 l30 -10 -28 23 c-35 29 -169 102
-257 140 -197 84 -521 174 -775 216 -33 6 -100 17 -150 25 -49 9 -143 19 -208
22 -97 6 -121 4 -128 -7 -13 -20 -11 -73 3 -87 9 -9 8 -16 -5 -30 -20 -22 -22
-53 -5 -70 6 -6 8 -15 4 -19 -30 -30 -70 131 -47 190 16 41 14 42 -23 13 -45
-34 -56 -33 -56 4 0 19 7 33 20 40 11 6 20 18 20 27 0 14 2 14 20 -2 26 -23
130 -31 214 -15 36 7 66 16 66 20 0 4 -29 16 -65 25 -36 10 -65 22 -65 26 0
13 22 10 50 -6 49 -28 64 -20 130 73 35 48 77 112 93 142 18 32 52 73 83 97
29 24 74 72 101 108 l48 65 6 -32 c7 -41 21 -67 48 -92 l21 -19 0 44 c0 28 -9
62 -26 92 -28 53 -27 76 7 155 13 30 15 42 7 40 -7 -3 -29 -44 -49 -92 -32
-77 -41 -91 -85 -120 -109 -74 -203 -182 -280 -320 -50 -90 -79 -120 -110
-114 -15 2 -12 9 15 41 25 27 35 50 39 85 4 36 12 55 36 78 56 54 92 107 131
189 21 44 41 82 45 85 12 9 76 123 150 265 114 220 151 287 176 325 23 33 24
34 25 10 2 -55 -3 -88 -27 -162 -14 -46 -24 -101 -24 -137 0 -60 1 -61 39 -85
22 -14 46 -35 55 -48 10 -15 16 -17 16 -8 0 30 -23 95 -41 119 -24 30 -24 84
-3 159 14 47 16 83 10 202 -7 154 -15 178 -55 165 -12 -3 -44 -36 -71 -72
l-50 -65 20 -26 c29 -36 25 -61 -21 -121 -59 -77 -92 -143 -78 -152 8 -5 9
-21 3 -55 -7 -40 -13 -50 -32 -52 -26 -4 -30 22 -7 54 13 20 10 26 -63 96 -48
46 -99 85 -134 102 -32 14 -58 29 -58 32 0 5 41 112 200 524 80 206 100 262
100 273 0 10 -61 57 -73 57 -3 0 -78 -184 -168 -410 l-164 -409 -22 42 c-30
59 -102 124 -148 133 -69 13 -112 -10 -208 -110 -125 -128 -186 -215 -231
-326 -12 -29 6 137 25 228 41 202 118 313 252 362 24 9 27 14 27 58 0 139 -75
216 -250 255 -25 6 -25 7 -22 92 3 77 1 93 -23 141 -23 47 -97 148 -130 179
-6 6 -31 37 -55 70 -62 85 -105 129 -180 185 -61 45 -150 96 -150 86 0 -3 27
-32 60 -65 33 -33 89 -100 125 -148 36 -48 69 -93 75 -100 16 -20 11 -24 -12
-12 -13 7 -66 53 -118 104 -52 50 -119 108 -147 129 -29 21 -53 42 -53 47 0 5
-11 19 -25 31 -29 25 -32 38 -7 39 14 0 13 3 -5 16 -21 14 -23 23 -23 119 l0
104 -55 0 -54 0 -3 -101z m92 -14 c0 -59 -3 -77 -15 -82 -9 -3 -17 -4 -19 -2
-2 2 -6 39 -9 82 l-7 77 25 0 c24 0 25 -2 25 -75z m-2 -122 c-2 -14 -17 -19
-63 -24 -46 -5 -63 -12 -75 -29 -42 -63 -179 -178 -305 -257 -19 -12 -35 -19
-35 -16 0 3 16 30 36 59 50 77 136 167 197 207 95 63 253 101 245 60z m393
-434 c58 -58 119 -125 134 -149 27 -42 27 -45 14 -99 l-13 -56 -6 50 c-6 58
-29 93 -140 210 -169 180 -200 220 -200 252 0 11 19 -5 52 -42 29 -33 100
-108 159 -166z m-671 152 c-10 -20 -40 -29 -40 -13 0 5 10 19 22 32 24 26 36
13 18 -19z m-46 -107 c15 -22 17 -51 11 -257 -3 -128 -8 -522 -10 -877 -5
-812 -15 -1295 -29 -1429 -3 -31 -8 -87 -11 -126 -7 -103 -15 -177 -20 -205
-3 -14 -7 -50 -10 -80 -3 -30 -7 -62 -10 -70 -2 -8 -7 -35 -10 -60 -10 -87
-15 -125 -20 -140 -3 -8 -7 -31 -9 -50 -3 -19 -10 -60 -16 -90 -30 -150 -44
-293 -45 -470 0 -85 14 -365 19 -381 3 -8 7 -32 10 -54 22 -192 86 -385 218
-653 49 -99 122 -190 209 -257 112 -88 445 -293 456 -281 2 2 -11 79 -21 121
-1 6 -6 26 -10 45 -4 19 -14 64 -23 99 -8 36 -16 72 -18 80 -36 173 -129 417
-173 451 -45 36 -90 22 -121 -39 -19 -36 -19 -41 -5 -87 20 -63 14 -156 -11
-184 -39 -43 -94 -21 -186 77 -74 79 -143 180 -187 273 -33 69 -87 224 -96
275 -29 155 -41 287 -40 435 2 399 14 486 98 715 26 71 82 281 92 345 3 19 12
67 19 105 13 63 20 110 30 185 29 233 41 281 80 323 54 58 119 24 170 -87 29
-63 37 -91 49 -171 13 -87 83 -295 139 -415 32 -69 140 -222 194 -273 83 -80
134 -110 297 -174 321 -127 542 -266 746 -472 58 -58 114 -117 125 -131 25
-31 105 -148 105 -154 0 -2 16 -30 35 -62 42 -70 98 -214 120 -309 9 -38 18
-79 21 -90 24 -104 24 -333 0 -495 -10 -65 -57 -235 -91 -325 -39 -104 -124
-283 -169 -354 -26 -41 -32 -61 -18 -61 15 0 168 -20 182 -24 8 -2 29 -7 47
-11 18 -4 39 -15 48 -25 15 -16 14 -20 -11 -50 -28 -32 -248 -145 -432 -221
-68 -28 -86 -40 -97 -64 -7 -16 -64 -136 -128 -265 -63 -129 -128 -264 -145
-300 -16 -36 -48 -103 -70 -150 -56 -120 -77 -168 -97 -225 -10 -27 -21 -54
-25 -60 -6 -9 -19 -41 -56 -140 -4 -11 -8 -24 -10 -30 -1 -5 -19 -59 -39 -120
-43 -129 -107 -387 -131 -520 -12 -71 -33 -237 -39 -310 -3 -27 -7 -77 -10
-110 -3 -33 -8 -89 -10 -125 -3 -36 -7 -76 -10 -90 -3 -14 -7 -52 -10 -85 -6
-81 -13 -151 -20 -205 -3 -25 -8 -63 -10 -85 -2 -22 -9 -87 -16 -145 -6 -58
-13 -114 -14 -125 -2 -16 -16 -107 -20 -125 -45 -215 -105 -271 -184 -171
l-30 38 -2 689 c-3 1529 0 1761 26 1964 4 25 8 61 10 80 2 19 8 73 14 120 6
47 13 103 16 125 3 22 7 56 10 75 3 19 8 51 10 70 3 19 7 47 11 62 l6 28 -74
2 c-119 2 -150 4 -213 13 -33 5 -63 8 -67 7 -12 -3 -302 57 -378 78 -340 93
-693 264 -904 439 -97 80 -170 150 -208 201 -23 30 -44 57 -47 60 -4 3 -29 39
-57 80 -76 111 -171 306 -199 410 -39 141 -52 247 -50 385 8 343 116 636 450
1215 69 120 78 135 120 210 23 41 53 95 67 120 14 25 53 97 85 160 76 146 96
180 106 180 4 0 7 5 7 11 0 6 9 23 19 37 77 109 237 486 276 652 2 8 13 49 24
90 18 62 49 207 76 346 9 46 44 274 50 324 3 19 7 51 10 70 7 50 14 107 20
170 3 30 8 62 10 70 2 8 7 46 10 84 3 39 8 79 11 90 3 12 6 41 8 66 2 25 9 88
15 140 7 52 14 115 17 140 2 25 6 56 9 70 3 14 7 61 10 105 7 120 14 182 25
210 5 14 8 25 5 25 -7 0 24 83 41 107 20 31 57 30 78 -3z m-264 -115 c-36 -56
-43 -76 -53 -149 -3 -21 -5 -19 -11 13 -13 60 1 103 48 152 23 25 45 45 49 45
4 0 -11 -28 -33 -61z m1149 -4 c24 -27 31 -45 31 -76 0 -24 -4 -38 -10 -34 -5
3 -10 12 -10 18 0 7 -18 43 -39 80 -43 72 -30 78 28 12z m-1110 -86 c-15 -54
-20 -91 -16 -138 5 -64 5 -65 -13 -41 -32 43 -45 95 -32 138 11 36 70 127 78
119 2 -2 -6 -37 -17 -78z m2179 -67 c13 -9 7 -28 -33 -117 -7 -16 -41 -102
-75 -190 -33 -88 -67 -173 -74 -190 -8 -16 -36 -87 -62 -157 -45 -118 -66
-151 -84 -131 -6 7 60 188 200 548 4 11 14 36 20 55 7 19 19 49 25 65 7 17 20
51 30 78 16 46 28 55 53 39z m-1881 -114 c-2 -18 -4 -4 -4 32 0 36 2 50 4 33
2 -18 2 -48 0 -65z m-453 -68 c58 -54 99 -144 104 -232 2 -37 1 -80 -3 -95
l-6 -27 -21 32 c-11 18 -33 76 -49 130 -34 117 -64 152 -130 152 -40 0 -41 -1
-34 -27 3 -16 18 -53 32 -83 18 -38 25 -70 24 -101 -1 -40 4 -53 37 -93 78
-94 128 -268 107 -373 -8 -37 -9 -35 -26 52 -34 167 -82 281 -150 359 -43 49
-103 86 -140 86 -18 0 -20 4 -14 28 3 15 16 37 27 49 l20 21 -21 11 c-29 16
-26 37 7 44 15 4 53 29 85 57 72 62 93 63 151 10z m1494 -10 c30 -29 59 -50
72 -50 20 0 22 -4 18 -42 -5 -44 16 -98 37 -98 22 0 -22 -20 -45 -20 -27 0
-87 -33 -108 -59 -7 -9 -28 -46 -47 -82 -32 -62 -55 -86 -69 -72 -10 11 -7 31
8 45 20 21 41 65 66 143 12 39 33 89 47 112 26 47 22 69 -19 97 -18 13 -24 13
-49 0 -64 -32 -125 -157 -175 -352 -83 -325 -133 -781 -134 -1204 0 -155 -3
-188 -14 -188 -11 0 -16 27 -21 118 -3 64 -10 158 -15 207 -8 86 -4 142 20
315 12 92 38 349 49 490 6 79 15 125 38 185 17 44 43 121 58 170 68 230 94
283 153 315 56 29 75 25 130 -30z m3192 -195 c0 -7 -15 -25 -32 -40 -31 -26
-291 -279 -1237 -1208 -217 -213 -402 -386 -410 -385 -8 2 -16 8 -18 14 -2 7
130 142 294 300 163 159 394 384 513 499 822 802 869 847 880 840 6 -3 10 -12
10 -20z m-5024 -266 c98 -61 139 -113 223 -280 77 -151 121 -269 121 -322 0
-56 -18 -31 -52 71 -34 100 -116 250 -168 307 -10 11 -34 46 -54 77 -43 68
-59 78 -123 78 -54 1 -118 28 -118 50 0 18 61 50 96 50 14 0 47 -14 75 -31z
m2898 13 c-12 -9 -26 -26 -32 -37 -10 -18 -11 -17 -12 12 0 32 10 41 45 42 20
1 19 0 -1 -17z m-740 -2 c33 -12 34 -44 4 -64 -13 -7 -52 -16 -87 -19 -64 -5
-109 -27 -119 -58 -5 -12 -3 -12 12 0 9 8 19 11 22 8 3 -3 -10 -17 -29 -31
-33 -25 -106 -112 -155 -184 -88 -130 -142 -326 -142 -517 l0 -60 29 61 c15
33 41 80 55 103 l28 43 -21 19 c-27 25 -26 31 3 66 17 21 23 36 19 56 -4 20 1
35 18 53 22 23 22 25 4 38 -19 13 -18 15 10 57 94 141 195 236 274 260 33 10
45 20 56 46 11 26 20 33 42 33 42 0 53 -17 53 -82 0 -67 7 -70 62 -33 44 30
86 32 136 6 37 -19 89 -67 81 -75 -2 -2 -33 2 -69 10 -93 19 -172 18 -201 -4
-13 -10 -41 -27 -62 -37 -21 -11 -49 -32 -63 -46 l-26 -27 54 18 c30 10 53 23
53 31 0 8 22 25 48 39 l48 25 21 -28 c23 -32 67 -57 98 -57 12 0 35 8 51 17
28 17 29 17 47 -7 9 -13 25 -40 34 -60 l17 -35 1 28 c0 16 -5 37 -11 49 -18
34 1 35 32 0 35 -39 36 -63 5 -123 -19 -36 -22 -49 -13 -58 9 -10 5 -18 -18
-39 -16 -15 -39 -41 -49 -57 -10 -16 -32 -40 -47 -53 -16 -13 -29 -28 -29 -34
0 -5 -12 -33 -26 -63 -37 -75 -122 -154 -245 -228 l-107 -63 21 -28 c11 -15
23 -42 27 -59 l8 -32 7 33 c8 34 25 44 25 15 0 -33 -12 -63 -25 -63 -8 0 -25
15 -39 33 l-26 32 0 -31 c0 -17 -7 -37 -15 -44 -21 -17 -29 -7 -16 18 28 52 6
119 -49 147 -67 35 -137 10 -174 -63 l-25 -47 -1 38 c0 76 37 103 152 113 40
3 110 17 155 31 128 39 192 111 234 265 11 37 19 77 19 88 0 24 22 26 40 5 10
-12 11 -24 2 -51 -14 -45 4 -42 30 6 20 38 23 94 8 135 -19 49 -82 115 -111
115 -41 0 -219 -96 -265 -143 -22 -23 -66 -80 -97 -127 -31 -47 -57 -77 -57
-68 0 24 19 65 52 115 28 41 28 42 8 53 -30 16 -25 33 25 91 62 73 56 86 -8
19 -80 -86 -85 -93 -184 -282 -97 -184 -120 -251 -109 -311 11 -57 31 -64 33
-11 3 57 51 156 103 214 24 26 39 36 35 25 -4 -11 -15 -49 -25 -85 -11 -36
-39 -100 -63 -142 -54 -95 -64 -143 -38 -178 10 -14 21 -42 25 -62 8 -44 46
-78 88 -78 31 0 92 -22 101 -37 4 -6 -22 -9 -61 -9 l-66 1 -150 -399 -151
-398 -36 42 c-37 43 -134 228 -171 327 -19 52 -20 63 -9 137 10 73 21 172 40
341 7 71 -10 69 191 26 175 -37 182 -37 139 -8 -23 16 -33 30 -31 43 14 82 13
137 -3 188 -16 50 -16 68 -6 168 19 172 32 269 61 435 8 47 21 78 54 125 24
35 67 111 95 170 41 84 62 116 104 154 86 78 169 108 231 84z m-3866 -914
c363 -361 440 -441 426 -449 -17 -10 -44 16 -956 922 -333 331 -415 418 -406
428 12 15 4 23 936 -901z m3404 887 c-55 -104 -96 -237 -123 -391 -16 -96 -19
-168 -20 -495 -1 -210 -6 -390 -11 -399 -38 -76 -64 102 -54 374 3 100 10 215
15 253 6 39 16 124 25 190 33 268 37 289 67 353 17 35 44 79 61 98 32 36 55
46 40 17z m-1802 -103 c25 -25 48 -40 64 -40 50 0 149 -103 250 -259 22 -35
25 -45 14 -52 -7 -5 -17 -9 -22 -9 -5 0 3 -9 18 -21 14 -11 33 -33 41 -48 12
-25 12 -30 -2 -44 -15 -15 -15 -18 1 -35 14 -16 15 -24 5 -44 -9 -21 -7 -32
10 -66 12 -23 21 -58 21 -79 0 -36 -3 -31 -49 62 -53 109 -107 187 -195 280
-61 64 -63 59 -8 -18 25 -34 32 -54 28 -71 -4 -16 8 -52 36 -112 24 -49 44
-93 47 -98 2 -5 -12 9 -31 30 -36 41 -98 138 -98 153 0 5 -20 29 -45 54 -32
33 -68 54 -135 81 -118 47 -165 48 -207 4 -71 -77 -80 -127 -39 -213 l24 -50
1 41 c1 44 22 81 39 70 7 -4 12 -17 12 -30 0 -33 38 -144 65 -191 51 -89 152
-146 290 -164 138 -18 152 -21 174 -42 13 -12 21 -32 21 -52 l0 -32 -20 32
c-10 17 -28 37 -39 42 -51 28 -139 1 -171 -51 -24 -40 -25 -59 -5 -98 12 -24
13 -30 2 -30 -21 0 -37 22 -37 50 l-1 25 -19 -24 c-31 -37 -26 -85 11 -114 34
-26 35 -57 2 -57 -23 0 -35 9 -56 40 l-17 24 0 -30 c0 -16 5 -35 12 -42 9 -9
9 -23 1 -59 -7 -27 -14 -61 -18 -76 -10 -46 -38 -31 -49 26 -7 42 -5 58 18
117 15 38 34 74 42 80 8 7 14 30 14 54 0 25 11 64 26 95 14 29 24 54 22 56 -2
1 -23 13 -48 25 -78 39 -204 127 -232 163 -15 19 -47 72 -73 118 -25 46 -51
89 -57 94 -7 7 -9 7 -6 0 3 -5 24 -50 47 -100 24 -49 55 -107 69 -128 37 -55
21 -55 -24 -1 -47 57 -175 275 -167 287 2 4 14 5 26 1 20 -6 20 -5 8 10 -8 10
-23 15 -33 13 -13 -4 -23 4 -34 25 -18 35 -11 47 16 30 17 -11 18 -10 11 11
-6 14 -17 22 -30 21 -19 -1 -21 3 -16 25 19 77 74 165 92 148 3 -4 1 -19 -5
-34 -12 -27 -11 -27 16 5 28 32 29 32 61 16 45 -23 97 -11 137 31 l32 34 61
-31 c34 -17 75 -46 91 -65 17 -18 30 -29 30 -23 0 20 -75 92 -114 111 -73 33
-128 40 -185 23 -47 -14 -54 -13 -80 2 l-29 17 54 28 c65 35 106 36 159 4 22
-14 51 -25 64 -25 22 0 23 2 9 18 -8 9 -18 22 -21 28 -9 15 49 94 68 94 9 0
33 -18 55 -40z m-554 -256 c14 -24 23 -48 19 -54 -10 -17 -35 -11 -35 8 0 9
-9 34 -20 55 -41 77 -10 69 36 -9z m4354 37 c0 -9 -17 -33 -109 -152 -20 -25
-58 -75 -85 -110 -70 -90 -125 -162 -260 -337 -65 -84 -122 -150 -127 -147
-27 17 14 84 163 260 9 11 51 63 93 115 42 52 90 113 108 134 18 22 46 57 62
77 17 21 54 67 83 103 50 61 72 79 72 57z m-1195 -368 c-26 -43 -56 -91 -65
-108 -69 -120 -83 -135 -45 -47 38 86 143 247 154 237 2 -2 -18 -39 -44 -82z
m-1698 -105 c-2 -35 -3 -9 -3 57 0 66 1 94 3 63 2 -32 2 -86 0 -120z m-559
-82 c23 -42 28 -91 13 -115 -7 -12 -13 -7 -25 20 -14 31 -49 136 -62 184 -8
27 44 -35 74 -89z m1119 62 c-3 -8 -6 -5 -6 6 -1 11 2 17 5 13 3 -3 4 -12 1
-19z m-20 -170 c-3 -8 -6 -5 -6 6 -1 11 2 17 5 13 3 -3 4 -12 1 -19z m31 -140
c-2 -49 -9 -93 -16 -100 -18 -18 -27 38 -14 91 7 25 15 66 19 91 10 65 16 22
11 -82z m-31 50 c-2 -13 -4 -3 -4 22 0 25 2 35 4 23 2 -13 2 -33 0 -45z
m-1183 1 c45 -35 48 -60 12 -87 -64 -48 -83 -54 -116 -37 -40 21 -64 59 -56
90 13 52 111 73 160 34z m1820 11 c22 -8 26 -16 26 -50 0 -43 -33 -90 -63 -90
-56 0 -107 48 -107 100 0 38 87 62 144 40z m2046 -13 c0 -7 -35 -41 -77 -77
-42 -36 -99 -85 -128 -110 -28 -25 -80 -70 -115 -100 -35 -30 -83 -72 -106
-93 -41 -37 -73 -45 -81 -21 -2 6 40 46 93 90 53 43 110 91 128 106 265 224
287 239 286 205z m-3213 -129 c-3 -8 -6 -5 -6 6 -1 11 2 17 5 13 3 -3 4 -12 1
-19z m1004 -4 c-15 -11 -21 -23 -18 -35 3 -11 1 -17 -4 -13 -10 6 -12 48 -2
57 3 4 16 7 27 7 20 0 19 -1 -3 -16z m-834 0 c-3 -3 -12 -4 -19 -1 -8 3 -5 6
6 6 11 1 17 -2 13 -5z m878 -34 c3 -5 22 -10 42 -10 35 0 36 0 18 -20 -32 -35
-85 -17 -85 29 0 14 17 14 25 1z m-1695 -35 c-7 -8 -23 -15 -35 -15 -12 0 -28
7 -35 15 -11 13 -6 15 35 15 41 0 46 -2 35 -15z m1677 -40 l28 -24 -26 -1
c-31 0 -65 23 -55 38 11 18 22 15 53 -13z m-1777 -34 c0 -34 -30 -63 -92 -90
-35 -15 -46 -24 -42 -36 4 -10 0 -15 -15 -15 -56 0 8 115 88 157 50 26 61 23
61 -16z m1990 -10 c19 -14 43 -34 53 -45 22 -24 23 -86 2 -86 -8 0 -15 6 -15
14 0 8 -21 22 -46 32 -51 19 -84 61 -84 106 0 26 1 27 28 16 15 -6 43 -23 62
-37z m-868 -1 l23 0 -9 -115 c-5 -63 -12 -115 -15 -115 -9 0 -62 191 -61 223
0 24 2 26 19 17 11 -5 30 -10 43 -10z m61 13 c-13 -2 -33 -2 -45 0 -13 2 -3 4
22 4 25 0 35 -2 23 -4z m39 -26 c0 -13 -12 -149 -24 -256 -11 -97 -13 -102
-25 -75 -21 50 -14 245 13 332 4 14 35 13 36 -1z m-1158 -12 c-7 -17 -43 -40
-50 -32 -4 4 43 47 52 47 2 0 1 -7 -2 -15z m1722 -50 c7 -17 0 -36 -166 -477
-68 -181 -127 -328 -131 -328 -5 0 -13 8 -18 19 -8 14 5 58 55 192 36 96 69
183 74 194 5 11 32 83 60 160 28 77 61 166 73 198 21 56 42 72 53 42z m-1796
-116 c-52 -119 -315 -626 -342 -659 l-20 -24 -149 154 c-82 85 -149 157 -149
160 1 3 20 19 43 37 23 17 96 73 162 123 119 91 214 157 291 201 90 51 199
108 202 105 1 -2 -16 -46 -38 -97z m1965 41 c70 -34 182 -97 267 -149 138 -84
168 -104 168 -108 0 -5 -132 -170 -310 -388 -68 -82 -143 -176 -168 -207 -48
-62 -52 -62 -110 -18 -12 10 -66 35 -120 56 -112 43 -166 79 -156 103 11 26
94 240 199 509 113 292 89 270 230 202z m468 -61 c-20 -20 -143 -38 -143 -21
0 17 45 31 100 31 40 1 51 -2 43 -10z m-2848 -13 c33 -11 37 -14 21 -21 -10
-5 -40 -3 -68 5 -44 11 -51 10 -62 -5 -10 -14 -21 -17 -50 -12 -21 3 -45 12
-53 19 -14 11 -13 14 13 19 50 11 157 8 199 -5z m2945 -4 c0 -10 -45 -32 -65
-32 -25 0 -27 20 -3 29 29 12 68 14 68 3z m507 -52 c20 -23 27 -25 85 -21 183
13 191 12 372 -75 122 -58 166 -84 166 -97 0 -29 -24 -30 -86 -4 -146 61 -356
118 -594 162 -115 21 -156 33 -168 48 -8 9 12 12 96 12 102 1 108 0 129 -25z
m-3601 -23 c-10 -7 -34 -26 -53 -43 -33 -28 -45 -32 -152 -44 -64 -7 -149 -11
-188 -8 l-70 3 9 -34 c12 -44 6 -92 -21 -161 -11 -30 -21 -64 -21 -76 0 -31
-11 -36 -33 -17 -18 17 -19 17 -15 -11 4 -36 47 -71 76 -62 12 4 36 28 55 54
30 41 97 94 97 77 0 -3 -11 -23 -25 -43 -14 -20 -25 -49 -25 -63 0 -20 -7 -30
-29 -39 -16 -6 -41 -25 -57 -41 -34 -35 -44 -36 -44 -6 0 13 -7 32 -15 43 -13
16 -16 17 -25 4 -18 -27 -12 -78 10 -85 27 -8 26 -44 -2 -85 -42 -62 -45 -53
-53 143 -8 204 -4 248 30 324 27 60 20 76 -28 62 -37 -11 -59 -29 -34 -29 23
0 21 -17 -9 -130 -33 -124 -42 -294 -20 -365 8 -27 14 -50 13 -50 -1 -1 -19
-11 -40 -23 -21 -12 -48 -22 -59 -22 l-21 0 21 -23 c36 -39 21 -92 -19 -66
-26 16 -86 10 -110 -12 -21 -18 -21 -20 -4 -13 11 4 34 9 50 11 25 3 27 2 9
-6 -40 -18 -134 -82 -134 -91 0 -6 5 -10 10 -10 6 0 10 -4 10 -10 0 -6 -27
-10 -60 -10 -59 0 -116 -19 -132 -44 -4 -6 -7 -27 -7 -46 1 -34 1 -35 10 -8 6
15 25 33 46 43 31 15 44 16 87 6 27 -6 55 -16 63 -22 22 -19 16 -73 -11 -98
-47 -44 -156 -36 -177 13 -7 17 -8 14 -6 -14 1 -25 8 -38 25 -45 29 -13 28
-25 -3 -25 -67 0 -116 101 -81 168 21 41 20 94 -2 135 -52 95 -108 180 -126
192 -24 16 -209 65 -243 65 -25 0 -30 19 -11 38 17 17 49 15 77 -4 22 -16 23
-15 19 2 -2 10 -19 29 -38 42 -30 21 -43 23 -94 19 -44 -4 -63 -2 -74 9 -19
19 -36 5 -67 -55 -23 -46 -23 -46 -30 -19 -4 16 -4 36 -1 45 4 13 0 11 -14 -6
-14 -16 -20 -38 -20 -71 0 -49 14 -66 45 -54 11 5 15 -1 15 -25 0 -38 18 -75
76 -157 47 -66 54 -87 27 -77 -16 6 -16 4 2 -16 22 -26 135 -108 162 -118 10
-4 47 -25 83 -48 36 -23 76 -47 90 -54 25 -12 25 -12 5 6 -12 10 -39 33 -60
51 -37 31 -38 32 -10 20 17 -7 81 -39 143 -71 166 -85 250 -88 338 -13 18 14
41 45 53 69 22 44 24 43 21 -8 -3 -44 -34 -88 -81 -115 -34 -18 -59 -24 -116
-25 -54 -1 -78 -5 -90 -18 -16 -16 -13 -17 49 -17 37 0 79 5 93 12 23 10 28
10 36 -5 13 -22 31 -21 62 3 22 17 26 18 31 4 9 -22 -11 -53 -37 -58 -67 -14
-121 -13 -148 3 -26 15 -32 15 -79 -2 -57 -20 -70 -17 -70 19 0 23 -3 24 -68
24 -53 0 -73 4 -85 18 -16 17 -71 48 -137 77 -19 8 -55 28 -80 45 -25 16 -52
33 -60 37 -58 27 -206 140 -290 221 -55 53 -100 96 -100 94 0 -9 26 -51 51
-83 31 -40 37 -59 17 -59 -24 1 -77 55 -122 124 -36 55 -43 73 -35 87 11 21
58 26 76 8 6 -6 27 -14 47 -19 28 -6 36 -5 36 7 0 19 -25 67 -44 82 -12 10
-16 33 -16 90 0 42 5 83 10 91 7 11 10 1 10 -35 0 -52 16 -95 37 -102 9 -3 13
18 15 73 3 77 4 79 37 101 46 31 54 29 75 -17 20 -46 30 -49 64 -17 20 18 35
22 90 22 67 0 113 -18 312 -118 40 -21 134 -141 186 -239 42 -81 54 -95 84
-105 35 -11 35 -11 51 26 12 26 37 50 90 86 l74 50 -39 3 c-44 4 -87 -11 -112
-39 -21 -23 -62 -25 -71 -3 -14 36 10 65 77 91 95 37 110 54 109 122 0 47 -2
52 -10 31 -14 -35 -39 -60 -61 -60 -14 0 -18 8 -18 39 0 33 -6 44 -35 68 -20
15 -56 47 -80 71 -24 23 -50 42 -59 42 -9 0 -16 8 -16 20 0 35 -21 66 -61 90
-21 14 -39 28 -39 32 0 14 -79 48 -112 48 -18 0 -40 4 -47 9 -20 13 28 26 91
25 55 -1 96 -25 111 -65 6 -16 19 -31 28 -34 30 -10 94 24 131 69 34 40 40 43
100 49 40 4 100 21 163 47 135 56 257 80 407 80 73 0 128 5 141 12 33 18 84
26 167 26 62 1 72 -1 56 -11z m3299 -12 c31 -9 90 -15 153 -15 95 0 219 -22
271 -49 39 -20 233 -81 258 -81 37 0 84 -30 106 -69 10 -17 15 -31 12 -31 -3
0 -39 15 -79 34 -77 36 -176 69 -184 61 -11 -11 -2 -63 18 -109 11 -28 24 -69
27 -93 6 -48 14 -47 49 8 30 47 84 85 96 66 11 -17 9 -66 -5 -107 -9 -25 -24
-41 -52 -56 -39 -20 -60 -54 -33 -54 7 0 31 10 52 23 42 23 74 68 86 120 l8
32 1 -33 c2 -50 23 -35 45 31 17 52 22 58 55 67 24 6 49 24 69 48 46 58 81 69
147 48 66 -21 79 -36 30 -36 -41 0 -166 -58 -220 -103 -28 -22 -35 -36 -35
-63 0 -27 -4 -34 -19 -34 -11 0 -26 -6 -33 -13 -7 -7 -39 -34 -70 -61 -32 -27
-58 -56 -58 -66 0 -10 -8 -28 -19 -41 -18 -22 -19 -22 -44 -6 -14 9 -29 26
-32 38 -6 17 -9 19 -16 8 -10 -16 -12 -60 -3 -83 3 -9 31 -30 63 -47 31 -18
67 -41 80 -53 17 -15 25 -17 28 -8 3 6 12 12 20 12 13 0 15 -8 10 -41 -8 -59
-18 -64 -62 -35 -54 37 -155 61 -155 38 0 -5 26 -26 58 -48 77 -52 94 -73 87
-103 -6 -23 -5 -24 37 -17 49 8 86 29 95 54 30 85 79 170 130 223 49 52 78 72
185 124 70 34 134 68 143 75 22 18 99 5 153 -26 43 -26 46 -26 59 -8 30 41 7
84 -52 98 l-30 8 28 -26 c15 -14 27 -30 27 -37 0 -20 -63 -1 -87 26 -30 34
-80 33 -190 -5 -99 -34 -93 -33 -93 -20 0 13 103 63 160 78 111 28 151 21 264
-46 90 -53 102 -68 116 -142 14 -73 20 -74 20 -6 0 62 15 69 25 12 5 -25 -1
-51 -20 -97 -15 -35 -29 -77 -32 -92 l-5 -28 38 17 c22 9 54 19 72 22 31 4 32
3 32 -29 0 -85 -134 -233 -156 -174 -7 17 9 44 55 93 17 18 31 36 31 40 0 4
-51 -43 -112 -105 -87 -86 -149 -135 -271 -216 -86 -58 -196 -124 -244 -147
-74 -37 -96 -43 -155 -44 -37 0 -68 -3 -68 -6 0 -3 7 -16 16 -28 18 -27 21
-27 -56 -2 -69 22 -90 25 -90 11 0 -5 -14 -14 -30 -21 -57 -24 -137 6 -165 60
l-14 27 46 -24 c26 -12 57 -23 70 -23 21 0 22 3 13 20 -13 23 -5 25 30 5 33
-19 100 -19 128 1 12 8 22 18 22 22 0 4 -47 7 -103 7 -98 0 -106 2 -140 28
-27 20 -41 41 -52 79 -18 61 -17 58 -6 58 5 0 14 -13 21 -30 15 -36 81 -97
112 -105 13 -3 60 -4 105 -3 79 3 87 6 212 69 72 36 131 65 131 63 0 -1 -35
-26 -77 -54 -95 -63 -93 -61 -54 -50 68 19 228 119 318 197 17 16 56 73 85
128 30 55 70 123 88 152 27 44 33 64 36 125 3 54 2 67 -6 51 -5 -13 -16 -23
-24 -23 -18 0 -56 47 -56 69 0 10 -9 5 -29 -17 -32 -34 -45 -38 -86 -22 -20 8
-34 6 -64 -9 -38 -20 -71 -51 -54 -51 5 0 13 4 18 9 6 4 22 11 37 15 21 5 30
2 38 -13 16 -31 12 -41 -17 -41 -42 0 -183 -38 -213 -56 -68 -44 -112 -109
-160 -237 -19 -50 -19 -57 -5 -90 30 -73 15 -162 -30 -173 -35 -9 -42 1 -23
34 65 111 20 193 -115 208 -50 6 -57 9 -52 25 10 31 -21 75 -71 98 -55 26 -69
22 -21 -8 18 -11 42 -30 53 -42 14 -16 6 -13 -35 11 -35 22 -71 35 -103 38
-27 3 -52 10 -55 17 -7 19 23 72 48 86 30 16 18 21 -18 7 -27 -10 -37 -9 -67
7 -41 22 -42 23 -18 41 32 24 20 221 -28 429 -22 96 -22 93 8 103 26 9 25 10
-27 26 -30 9 -58 16 -63 16 -13 0 -9 -34 6 -56 22 -32 37 -196 34 -374 l-3
-165 -44 78 c-50 90 -84 133 -110 142 -11 3 -25 20 -32 38 -21 49 -73 101
-193 192 -109 82 -230 195 -210 195 18 0 155 -108 263 -208 20 -18 63 -54 95
-78 32 -25 67 -59 76 -76 17 -31 61 -53 88 -43 17 6 15 -10 -3 -25 -20 -17
-19 -32 7 -65 20 -26 22 -26 29 -9 10 24 11 158 2 168 -4 3 -12 -3 -18 -15
-10 -18 -14 -11 -29 58 -15 71 -28 100 -67 154 -9 12 -5 22 22 50 l34 34 -110
6 c-62 3 -125 12 -145 20 -25 11 -42 12 -61 6 -36 -13 -63 -5 -139 44 l-65 41
125 -6 c69 -3 148 -12 175 -21z m-3317 -79 c-49 -45 -170 -138 -223 -172 -29
-18 -30 -18 -15 0 31 39 261 216 280 215 3 0 -16 -19 -42 -43z m3025 -61 c4
-8 2 -17 -4 -21 -6 -3 -25 -25 -42 -48 -31 -41 -57 -75 -164 -212 -287 -367
-291 -371 -307 -345 -3 5 28 51 70 102 42 52 88 109 102 128 15 18 62 77 105
130 43 53 110 137 150 188 40 51 75 92 78 92 4 1 9 -6 12 -14z m100 -81 c23
-25 42 -48 42 -52 0 -8 -560 -552 -568 -552 -9 0 -37 31 -37 40 0 5 17 28 38
52 20 24 53 63 72 87 19 24 53 65 75 92 22 26 74 89 115 139 41 51 89 109 106
129 17 20 43 53 58 74 16 20 35 37 42 37 8 0 34 -21 57 -46z m-4615 -38 c94
-20 185 -70 263 -143 81 -77 121 -142 117 -192 -3 -34 -28 -58 -28 -26 0 33
-52 124 -90 159 -52 47 -239 139 -315 155 -114 25 -129 54 -30 59 11 1 48 -5
83 -12z m6193 -11 c1 -5 -33 -20 -75 -32 -156 -45 -338 -151 -363 -213 -50
-123 -73 -145 -73 -69 0 118 162 263 350 313 60 17 160 17 161 1z m-4646 -163
c100 -104 150 -163 147 -174 -2 -10 -10 -18 -17 -18 -13 0 -306 301 -314 322
-3 9 16 28 29 28 3 0 73 -71 155 -158z m3163 118 c-4 -11 -555 -550 -562 -550
-22 0 24 51 265 295 179 181 276 272 285 268 8 -3 14 -9 12 -13z m-4727 -50
c100 -33 206 -84 154 -74 -16 3 -54 15 -83 25 -29 10 -77 22 -107 25 -47 6
-60 3 -99 -20 -24 -14 -55 -26 -67 -26 l-22 0 23 25 c13 14 33 26 44 26 15 1
16 3 5 6 -9 2 -35 -3 -58 -11 -49 -16 -52 -1 -4 25 65 36 103 36 214 -1z
m4789 -21 c0 -9 -15 -29 -32 -44 -37 -30 -150 -130 -244 -215 -148 -134 -287
-255 -295 -258 -38 -14 27 59 263 295 256 256 273 271 290 256 10 -9 18 -24
18 -34z m-3270 -118 l165 -159 -16 -29 c-9 -15 -40 -66 -68 -113 -29 -46 -80
-141 -114 -212 -34 -70 -66 -127 -70 -127 -5 -1 -56 21 -115 48 -59 27 -163
75 -232 106 -69 32 -127 59 -128 60 -5 4 73 156 107 210 61 96 284 375 300
375 3 0 80 -72 171 -159z m3320 65 c0 -8 -10 -20 -22 -29 -13 -8 -32 -23 -43
-33 -42 -38 -160 -140 -191 -164 -17 -14 -93 -78 -168 -143 -99 -86 -142 -117
-154 -112 -18 7 -1 25 123 130 32 28 82 70 110 95 28 25 89 77 135 115 46 39
91 78 100 88 29 30 94 75 102 71 5 -3 8 -11 8 -18z m-4391 -73 c1 -12 13 -30
27 -40 34 -23 74 -64 74 -74 0 -5 -11 -3 -25 3 -31 14 -45 3 -19 -16 17 -13
17 -15 2 -21 -29 -11 -55 11 -61 54 -3 22 -17 66 -32 97 -26 55 -27 58 -9 71
17 12 20 10 31 -19 6 -18 12 -43 12 -55z m5251 59 c0 -10 -15 -63 -33 -117
-26 -78 -38 -101 -53 -103 -22 -3 -74 33 -74 51 0 7 19 30 43 53 23 22 49 54
57 70 29 58 60 82 60 46z m-760 -128 c62 -100 107 -167 157 -237 l35 -47 -189
-91 c-264 -128 -394 -189 -404 -189 -4 0 -18 11 -31 24 -21 22 -136 118 -190
158 l-23 17 35 28 c19 15 83 71 141 123 58 52 150 133 204 180 54 47 117 102
139 122 48 44 40 50 126 -88z m-5492 -247 c7 -26 24 -66 38 -90 37 -59 128
-151 197 -199 71 -48 220 -119 302 -143 33 -9 71 -21 85 -25 25 -8 24 -8 -5
-9 -40 -1 -169 24 -231 45 -67 23 -133 56 -228 118 -204 132 -281 262 -204
343 26 27 30 23 46 -40z m5722 49 c0 -27 58 -57 142 -71 45 -8 89 -22 97 -30
14 -13 13 -15 -10 -15 -15 0 -43 -15 -67 -36 -44 -37 -52 -54 -28 -54 24 0 27
-16 10 -56 -13 -31 -14 -47 -5 -93 6 -30 9 -56 6 -59 -2 -2 -22 24 -44 59 -40
63 -56 110 -49 145 2 10 -7 28 -19 40 -33 33 -69 184 -44 184 6 0 11 -6 11
-14z m1525 -11 c52 -51 26 -125 -80 -230 -141 -140 -366 -258 -515 -272 -64
-5 -55 7 25 33 80 26 254 112 309 154 117 86 200 204 213 301 7 45 15 48 48
14z m-5766 -70 c-11 -59 -27 -95 -44 -101 -9 -4 -13 -13 -10 -23 5 -18 -48
-142 -84 -196 l-21 -30 3 85 c1 47 -1 97 -6 112 -6 24 -4 27 19 30 l26 3 -34
38 c-26 30 -42 40 -76 44 -35 5 -41 8 -30 18 18 17 75 35 111 35 48 0 108 22
125 46 l17 22 6 -21 c3 -12 2 -40 -2 -62z m4215 -51 c12 -30 5 -35 -96 -83
-57 -27 -178 -85 -270 -130 -92 -44 -175 -81 -184 -81 -52 0 17 45 261 170
149 76 273 139 276 139 4 1 10 -6 13 -15z m-6202 -51 c43 -6 42 -25 -3 -43
-25 -11 -32 -10 -49 5 -26 23 -27 60 -2 50 9 -4 34 -9 54 -12z m2060 -22 c24
-10 72 -32 108 -48 36 -17 118 -54 182 -83 104 -47 116 -55 107 -72 -5 -10
-13 -18 -18 -18 -4 0 -88 39 -187 86 -98 47 -199 95 -224 106 -55 26 -53 24
-45 37 9 16 27 14 77 -8z m4203 -76 c76 -201 124 -363 145 -495 7 -41 17 -80
22 -87 9 -11 -21 -11 -84 2 -16 3 -18 -11 -20 -139 l-3 -141 -134 0 -134 0
-12 40 c-7 22 -20 67 -30 100 -40 138 -124 286 -254 447 -39 48 -71 90 -71 92
0 5 216 111 380 187 52 24 108 51 125 61 16 10 33 14 37 10 3 -4 18 -38 33
-77z m-6054 59 c7 -9 12 -31 10 -49 -2 -30 4 -38 51 -76 59 -46 127 -80 268
-132 143 -54 244 -78 405 -97 50 -6 100 -13 111 -16 12 -3 173 -9 357 -12 298
-6 338 -9 353 -24 16 -16 16 -18 -10 -28 -60 -23 -538 -9 -911 27 l-170 16
-73 50 c-73 49 -171 96 -203 97 -19 0 -123 43 -248 101 l-84 40 -24 -22 c-12
-13 -23 -33 -23 -45 0 -51 156 -141 300 -173 52 -12 138 -33 190 -47 52 -14
120 -32 150 -39 85 -21 332 -44 580 -55 124 -6 257 -14 296 -18 38 -5 107 -6
152 -3 86 7 111 -4 72 -32 -28 -19 -579 -13 -712 8 -51 9 -158 20 -238 26
-169 13 -292 40 -515 114 -247 82 -267 91 -307 129 -31 29 -38 43 -38 72 0 31
9 46 50 90 28 29 50 60 50 68 0 24 39 31 55 9 12 -15 14 -15 15 -2 0 38 65 54
91 23z m6452 7 c61 -23 73 -70 31 -120 -33 -39 -71 -41 -114 -5 -36 31 -61 75
-52 92 11 16 64 42 89 42 12 0 33 -4 46 -9z m1443 -17 c30 -14 54 -31 54 -38
0 -7 23 -35 50 -63 43 -44 50 -57 50 -90 0 -21 -4 -43 -8 -50 -17 -28 -252
-122 -427 -172 -88 -25 -353 -76 -465 -90 -321 -39 -372 -43 -416 -31 -34 10
-82 10 -219 1 -97 -7 -192 -9 -213 -5 -39 7 -82 29 -82 43 0 4 67 6 148 3 124
-4 158 -2 202 13 37 12 69 16 109 12 101 -10 459 17 636 48 174 31 204 37 300
60 151 37 192 54 297 120 50 31 83 78 77 110 -6 29 -64 32 -100 6 -16 -12 -36
-21 -46 -21 -29 0 -119 -36 -173 -69 -28 -17 -63 -31 -78 -31 -54 0 -160 -47
-224 -98 -40 -31 -54 -34 -328 -62 -270 -28 -336 -32 -542 -32 -181 0 -230 2
-260 15 -21 9 -38 20 -38 26 0 19 66 23 279 16 142 -5 242 -4 291 4 41 6 138
18 215 27 487 56 768 176 811 348 8 33 30 33 100 0z m-5766 -185 c47 -21 85
-42 84 -46 0 -4 -14 -37 -30 -73 -17 -36 -39 -86 -49 -112 -20 -55 -31 -58
-118 -34 -29 8 -95 24 -147 36 -179 40 -225 52 -233 59 -8 8 48 179 91 273
l30 67 144 -66 c78 -36 181 -83 228 -104z m-1988 141 c24 -6 81 -19 128 -30
84 -18 166 -47 158 -55 -9 -9 -253 48 -302 70 -56 26 -50 31 16 15z m77 -80
c20 -5 86 -22 146 -36 126 -30 218 -58 243 -74 15 -10 15 -10 -3 -7 -11 3 -49
10 -85 17 -147 27 -218 44 -280 67 -95 35 -109 57 -21 33z m-689 -180 c-14
-11 -36 -26 -50 -33 -14 -8 -43 -25 -65 -38 l-40 -24 23 33 c23 32 63 58 112
73 41 12 46 10 20 -11z m8765 10 c29 -11 117 -81 110 -88 -2 -3 -26 9 -52 26
-26 16 -66 39 -88 50 -31 16 -35 21 -18 22 12 0 33 -4 48 -10z m-8625 -86 c46
-24 51 -29 32 -32 -13 -2 -37 1 -54 7 -81 28 -120 10 -248 -114 -103 -100
-209 -189 -217 -181 -2 2 0 13 6 23 17 30 304 311 334 326 34 18 72 11 147
-29z m8622 14 c18 -13 83 -75 143 -138 61 -63 132 -135 159 -159 37 -33 43
-42 25 -36 -44 13 -103 59 -229 180 -69 66 -140 127 -158 134 -30 13 -40 12
-98 -9 -74 -26 -91 -22 -41 9 92 56 139 61 199 19z m-6552 -48 c25 -5 99 -21
165 -35 66 -14 135 -29 153 -32 37 -6 47 -17 35 -36 -7 -11 -21 -11 -83 4 -73
17 -323 75 -367 84 -14 3 -23 13 -23 24 0 17 4 18 38 10 20 -5 57 -14 82 -19z
m6895 -136 c54 -34 119 -94 158 -146 33 -43 67 -134 67 -177 0 -33 0 -33 -44
33 -66 97 -171 220 -267 310 l-84 80 60 -34 c33 -18 83 -48 110 -66z m-9396
18 c-35 -37 -100 -112 -144 -167 -44 -55 -88 -107 -97 -115 -9 -8 -29 -33 -44
-55 l-27 -40 6 59 c8 79 46 152 115 221 69 69 209 163 246 165 5 0 -20 -30
-55 -68z m2506 44 c144 -29 320 -68 324 -72 2 -2 -6 -34 -18 -71 -12 -38 -29
-115 -38 -173 -9 -58 -18 -107 -20 -109 -2 -3 -52 -8 -111 -12 -59 -4 -128
-10 -153 -14 l-47 -7 -4 119 c-5 136 -16 167 -65 185 -28 10 -33 16 -28 33 4
11 9 43 11 70 8 76 10 78 47 71 17 -3 64 -12 102 -20z m4920 -77 c-27 -5 -120
-15 -205 -23 -85 -9 -170 -18 -187 -22 -21 -4 -33 -3 -33 4 0 20 25 27 105 29
44 1 118 6 165 11 47 5 112 9 145 9 l60 1 -50 -9z m-5261 -14 c65 -8 124 -19
130 -26 8 -9 5 -10 -14 -5 -14 4 -79 11 -145 17 -66 6 -147 14 -180 18 l-60 8
75 1 c41 1 129 -5 194 -13z m-507 -1 c-3 -3 -12 -4 -19 -1 -8 3 -5 6 6 6 11 1
17 -2 13 -5z m5930 0 c-3 -3 -12 -4 -19 -1 -8 3 -5 6 6 6 11 1 17 -2 13 -5z
m-300 -30 c-3 -3 -12 -4 -19 -1 -8 3 -5 6 6 6 11 1 17 -2 13 -5z m-170 -20
c-3 -3 -12 -4 -19 -1 -8 3 -5 6 6 6 11 1 17 -2 13 -5z m-4830 -30 c-3 -3 -12
-4 -19 -1 -8 3 -5 6 6 6 11 1 17 -2 13 -5z m130 -416 c-1 -73 -3 -16 -3 127 0
143 2 203 3 133 2 -70 2 -187 0 -260z m4456 117 c1 -6 -49 -11 -130 -13 -115
-2 -133 0 -133 13 0 13 18 15 130 13 76 -2 131 -7 133 -13z m-7115 -91 c26
-21 72 -69 102 -107 87 -110 139 -169 177 -204 45 -41 30 -42 -45 -4 -161 81
-273 205 -302 335 -12 54 -1 100 12 49 5 -20 25 -45 56 -69z m2982 71 c0 -13
-23 -15 -150 -15 -127 0 -150 2 -150 15 0 13 23 15 150 15 127 0 150 -2 150
-15z m6865 -68 c-27 -81 -59 -130 -129 -193 -56 -52 -193 -144 -213 -144 -4 0
18 26 48 58 30 31 80 89 111 127 30 39 85 103 122 144 36 40 67 79 67 85 1 6
3 3 6 -7 2 -9 -3 -41 -12 -70z m-6865 -12 c0 -50 9 -46 -145 -65 -44 -5 -97
-13 -117 -16 l-38 -7 0 67 0 66 150 0 150 0 0 -45z m4133 -59 l-6 -103 48 -7
48 -8 -7 -69 c-14 -153 -98 -441 -136 -464 -7 -5 -45 8 -115 40 -16 7 -54 23
-83 35 l-53 23 6 41 c4 23 10 55 15 71 33 109 51 409 31 497 -5 20 -6 39 -3
42 3 4 63 6 133 6 l127 0 -5 -104z m-4126 -41 c3 -9 3 -19 -1 -22 -3 -4 -61
-10 -128 -14 -67 -5 -136 -9 -153 -11 -24 -2 -30 1 -30 17 0 18 9 21 114 27
62 4 119 9 125 12 26 10 67 5 73 -9z m6601 -37 c-88 -106 -220 -235 -275 -268
-49 -30 -66 -35 -118 -35 -40 1 -73 7 -99 21 l-39 21 80 -5 c108 -6 139 11
288 158 97 95 174 156 203 160 2 0 -16 -24 -40 -52z m-9229 -106 c107 -115
166 -155 251 -168 l43 -7 -22 -19 c-30 -24 -42 -23 -107 8 -82 39 -257 215
-319 323 -20 35 61 -37 154 -137z m6795 132 c3 -8 2 -12 -4 -9 -6 3 -10 10
-10 16 0 14 7 11 14 -7z m-2087 -36 c40 -68 120 -283 129 -348 1 -8 6 -41 11
-72 7 -37 6 -58 0 -58 -5 0 -39 16 -76 36 -36 20 -83 46 -105 58 -21 11 -59
41 -85 65 l-46 44 45 11 c65 16 90 33 106 72 13 32 13 39 -6 81 -22 50 -26 94
-10 124 14 25 15 25 37 -13z m-2072 -55 c4 -27 20 -102 37 -168 17 -66 32
-129 35 -140 4 -18 -17 -29 -163 -89 -211 -87 -200 -84 -207 -49 -4 15 -18 71
-32 123 -24 87 -50 209 -62 286 l-5 32 69 11 c37 6 102 15 143 21 41 5 86 12
100 14 76 11 78 10 85 -41z m-458 31 c-3 -3 -12 -4 -19 -1 -8 3 -5 6 6 6 11 1
17 -2 13 -5z m4826 -1 c-7 -2 -19 -2 -25 0 -7 3 -2 5 12 5 14 0 19 -2 13 -5z
m40 -15 c-2 -5 0 -8 5 -8 31 0 241 -24 387 -44 94 -13 213 -29 265 -36 52 -6
119 -16 149 -21 30 -5 80 -9 110 -9 41 0 103 -15 226 -54 94 -30 222 -71 286
-91 63 -20 139 -50 167 -66 47 -27 52 -33 52 -65 0 -51 -23 -98 -64 -129 -20
-15 -36 -33 -36 -41 0 -22 -43 -44 -97 -51 l-50 -5 -29 58 c-25 50 -38 63 -89
92 -33 18 -62 38 -63 43 -15 39 -314 125 -587 167 -230 36 -505 50 -652 33
-70 -9 -100 -8 -129 1 -47 16 -54 35 -17 49 36 14 635 6 778 -11 286 -33 306
-37 334 -69 14 -16 44 -35 66 -41 48 -14 192 -68 220 -83 79 -41 122 -60 181
-78 38 -12 80 -30 93 -40 60 -48 107 15 50 67 -10 9 -19 23 -19 30 0 46 -205
123 -505 189 -38 9 -86 20 -105 25 -19 5 -71 14 -115 19 -44 6 -125 18 -180
26 -68 11 -213 18 -457 22 -340 6 -358 7 -358 24 0 18 13 19 213 20 230 1 313
11 192 23 -38 4 -106 11 -149 16 -44 6 -110 10 -147 10 -56 0 -70 3 -78 19
-10 17 -5 18 73 17 46 0 82 -4 79 -8z m144 -4 c-3 -3 -12 -4 -19 -1 -8 3 -5 6
6 6 11 1 17 -2 13 -5z m-4997 -12 c0 -5 -44 -12 -97 -15 -54 -4 -132 -9 -173
-12 -59 -4 -70 -3 -50 5 14 6 77 15 140 19 168 12 180 12 180 3z m18 -67 c1
-1 0 -9 -3 -17 -5 -13 -52 -17 -308 -22 -356 -9 -650 -33 -792 -66 -57 -13
-172 -39 -230 -52 -104 -23 -258 -69 -298 -89 -63 -32 -111 -73 -133 -114 -19
-36 -19 -37 0 -51 25 -18 54 -18 90 1 41 21 46 19 33 -16 -11 -27 -10 -32 13
-49 36 -28 50 -25 50 12 0 17 7 40 17 50 15 17 15 18 -3 18 -10 0 -25 4 -32 9
-9 5 18 19 80 40 51 18 117 46 146 62 30 17 83 39 119 50 38 12 79 34 101 53
33 29 47 34 137 46 312 40 442 50 716 51 184 1 232 -2 263 -15 22 -9 36 -21
34 -28 -6 -18 -99 -22 -169 -8 -137 26 -670 -25 -879 -85 -30 -9 -89 -25 -130
-36 -151 -40 -260 -96 -348 -179 -31 -29 -41 -46 -37 -59 6 -21 -18 -51 -41
-51 -8 0 -26 11 -40 25 -29 29 -34 31 -34 10 0 -27 -31 -16 -41 15 -6 17 -32
44 -60 65 -45 32 -49 38 -49 76 0 79 27 98 244 171 83 28 167 58 186 69 19 10
64 23 100 28 36 6 92 15 125 21 57 10 198 29 385 52 151 18 360 26 575 21 116
-3 211 -6 213 -8z m-2090 -190 c23 -13 53 -26 65 -28 12 -2 3 -5 -19 -6 -32
-1 -53 7 -90 32 -54 37 -75 69 -28 43 16 -9 48 -27 72 -41z m8899 10 c-44 -40
-54 -45 -95 -44 -47 1 -48 3 -2 13 14 3 50 21 80 41 30 19 57 35 60 35 3 -1
-17 -21 -43 -45z m-1954 -36 c29 -3 55 4 94 26 l41 23 -5 -33 c-5 -30 -2 -33
36 -48 23 -9 58 -16 79 -15 28 1 67 -13 143 -50 199 -98 214 -109 467 -341 61
-57 112 -100 112 -96 0 4 -18 28 -39 54 -47 56 -53 78 -26 97 19 13 24 10 57
-34 49 -66 80 -129 76 -155 -5 -36 -41 -33 -132 11 -12 6 4 -59 23 -93 14 -24
16 -43 11 -95 l-7 -65 -1 58 c-1 32 -6 56 -11 53 -5 -3 -17 -36 -27 -73 -20
-78 -36 -114 -58 -132 -14 -11 -16 -11 -16 4 0 13 -7 11 -37 -13 -69 -53 -103
-66 -178 -65 -58 0 -81 5 -130 30 -33 17 -69 40 -79 52 -25 27 -19 27 40 -5
35 -19 69 -28 119 -31 63 -5 75 -2 128 25 63 34 74 28 25 -14 -30 -25 -31 -26
-8 -19 39 11 57 36 65 88 l6 48 -38 -24 c-89 -55 -159 -64 -215 -28 -18 11
-78 43 -133 70 -151 75 -212 144 -276 315 -23 64 -31 71 -85 79 -39 7 -41 6
-58 -33 -17 -38 -64 -82 -119 -110 -15 -7 -26 -18 -24 -24 7 -22 57 -16 113
13 63 34 99 39 108 15 16 -41 7 -50 -78 -83 -98 -37 -146 -76 -146 -118 0 -45
14 -58 30 -28 20 38 56 58 80 45 21 -11 27 -54 10 -65 -16 -10 -3 -22 60 -56
37 -19 68 -45 81 -65 12 -20 29 -34 40 -34 14 0 19 -7 19 -28 0 -19 11 -39 33
-59 32 -32 136 -85 192 -99 l30 -7 -30 -13 c-50 -21 -98 -17 -124 10 -30 32
-81 56 -119 56 -26 0 -31 4 -37 37 -6 35 -31 93 -39 93 -2 0 -2 -8 1 -19 10
-39 -15 -28 -26 12 -7 23 -24 57 -38 75 -23 31 -100 79 -110 69 -11 -11 20
-48 55 -66 49 -25 69 -49 77 -93 9 -46 0 -74 -26 -81 -15 -4 -37 9 -82 51
l-62 57 -3 -44 c-2 -25 -14 -59 -29 -82 -18 -27 -23 -46 -19 -64 9 -37 60 -33
144 9 38 19 86 38 108 42 l39 7 -30 -29 c-16 -16 -34 -38 -40 -47 -7 -13 -35
-22 -100 -33 -52 -9 -128 -32 -180 -54 -95 -41 -117 -45 -315 -60 -69 -5 -143
-16 -165 -23 -48 -17 -241 -31 -249 -18 -8 12 78 68 126 83 32 9 41 9 57 -6
18 -16 22 -16 82 5 49 16 79 20 127 16 75 -6 87 7 52 55 l-22 30 26 47 c14 27
31 72 37 102 16 76 25 91 37 59 9 -24 9 -23 22 14 12 39 10 149 -4 163 -9 9
-65 -55 -66 -74 0 -7 11 -13 25 -13 16 0 25 -6 25 -15 0 -11 -12 -15 -45 -15
-38 0 -47 -4 -54 -22 -11 -30 -49 -64 -83 -77 -16 -6 -28 -9 -28 -7 0 1 16 19
35 39 19 20 35 44 35 54 0 10 29 45 65 78 53 50 65 67 71 102 4 25 16 51 30
64 l24 22 0 -152 c0 -172 -15 -329 -36 -380 -15 -36 -6 -61 22 -61 25 0 85 34
80 46 -5 13 13 34 30 34 6 0 14 -9 17 -21 8 -31 40 -20 47 16 4 17 4 49 2 73
-3 35 -7 41 -18 31 -8 -6 -14 -17 -14 -24 0 -14 -75 -85 -90 -85 -15 0 -12 26
16 167 14 71 27 167 28 215 1 75 -2 90 -22 117 l-23 31 24 0 c33 0 61 34 61
75 0 19 4 35 10 35 5 0 47 18 92 40 46 22 89 40 97 40 22 0 27 11 14 31 -20
31 5 44 87 44 84 0 107 13 126 71 14 42 6 82 -25 129 -22 32 -23 35 -6 35 10
0 29 -8 42 -19 19 -15 23 -28 22 -69 0 -27 -7 -73 -14 -101 -13 -51 -12 -52
27 -133 53 -110 121 -181 194 -203 30 -9 81 -19 113 -22 42 -4 60 -11 68 -25
20 -37 -15 -47 -86 -23 -16 6 -15 3 5 -14 28 -23 92 -41 144 -41 26 0 39 -7
53 -26 l20 -26 18 38 c10 22 19 40 20 42 2 2 15 -4 29 -14 15 -9 28 -15 30
-13 2 2 0 31 -3 64 -5 47 -13 69 -38 100 -18 22 -44 69 -59 105 -27 65 -93
172 -123 200 -40 38 -95 73 -195 125 -59 30 -111 55 -114 55 -4 -1 7 -12 23
-26 29 -25 29 -25 5 -19 -14 4 -50 20 -81 36 -31 15 -87 35 -124 44 -63 14
-73 14 -119 -1 -58 -19 -109 -62 -137 -116 -24 -47 -30 -48 -19 -5 4 17 11 46
15 62 4 18 28 51 63 83 46 43 54 55 42 63 -19 12 -56 3 -91 -22 -34 -24 -42
-24 -29 1 13 24 61 50 93 50 13 0 32 6 43 14 17 13 21 12 42 -10 13 -13 28
-25 35 -25z m-5611 -64 c-152 -62 -285 -149 -393 -255 -79 -78 -112 -129 -124
-193 l-7 -37 -29 21 c-99 70 53 278 291 398 113 56 243 98 315 100 22 0 8 -9
-53 -34z m6209 18 c41 -9 108 -31 151 -48 167 -70 398 -272 398 -348 0 -29
-29 -84 -54 -100 -21 -14 -21 -13 -18 23 6 55 -33 125 -108 200 -36 36 -74 72
-86 80 -65 47 -88 62 -165 104 -46 25 -115 57 -154 71 -38 15 -72 29 -74 31
-9 9 40 3 110 -13z m-4923 -50 c2 -7 -1 -13 -7 -13 -6 0 -34 -11 -63 -24 -154
-70 -291 -125 -299 -120 -26 16 4 36 129 87 75 30 153 62 172 71 40 17 62 16
68 -1z m-358 -225 c0 -4 -15 -8 -32 -10 -28 -3 -30 -5 -13 -12 65 -25 84 -54
92 -140 l6 -70 -23 22 c-23 21 -39 28 -174 74 -77 25 -98 48 -46 48 24 0 41 9
66 36 36 38 44 57 19 48 -13 -5 -15 10 -15 102 l0 108 60 -100 c33 -54 60
-102 60 -106z m4440 199 c0 -2 -7 -25 -16 -51 -15 -44 -15 -83 1 -133 6 -18 3
-23 -9 -23 -9 0 -16 -4 -16 -9 0 -14 61 -62 93 -74 16 -5 25 -13 20 -17 -4 -4
-50 -22 -102 -40 -51 -18 -106 -44 -122 -58 l-29 -24 0 35 c0 49 24 112 61
158 18 23 24 37 15 33 -20 -8 -20 -1 0 44 37 86 53 118 71 139 16 20 33 30 33
20z m-4046 -49 l25 -42 -181 -93 c-100 -51 -182 -92 -183 -91 -2 2 -14 27 -29
56 l-26 52 32 15 c26 12 328 142 335 144 1 1 13 -18 27 -41z m3854 -59 c58
-27 76 -49 51 -64 -5 -4 -33 4 -62 18 -29 14 -80 37 -114 52 -42 18 -63 33
-63 45 0 35 -5 36 188 -51z m491 22 c36 -34 38 -49 11 -84 -30 -38 -79 -44
-135 -17 -50 24 -52 28 -30 70 32 62 105 77 154 31z m-575 -60 c59 -26 109
-51 111 -53 10 -10 -101 -263 -130 -296 -1 -2 -48 27 -104 63 l-101 65 26 58
c14 31 35 82 46 112 19 54 39 100 43 100 2 0 50 -22 109 -49z m-3718 12 c7
-10 14 -21 14 -25 0 -3 -64 -39 -142 -78 -79 -40 -162 -84 -185 -97 l-43 -25
-11 26 c-7 14 -10 28 -8 30 2 2 36 20 74 39 39 19 115 60 170 91 55 31 104 56
109 56 5 0 15 -8 22 -17z m66 -110 c47 -64 167 -188 212 -220 l30 -20 -40 -34
c-21 -19 -66 -59 -100 -89 -210 -190 -216 -194 -228 -178 -22 29 -71 92 -97
122 -66 78 -162 235 -171 279 -2 15 33 37 167 107 94 49 173 89 177 89 4 1 26
-25 50 -56z m3482 -198 c32 -19 61 -35 65 -35 3 0 17 -9 31 -20 21 -16 9 -14
-70 11 -106 35 -115 41 -107 63 9 22 16 21 81 -19z m-71 -42 c-7 -2 -21 -2
-30 0 -10 3 -4 5 12 5 17 0 24 -2 18 -5z m-3143 -32 c0 -5 -19 -26 -42 -46
-24 -21 -98 -90 -166 -154 -68 -64 -128 -117 -133 -119 -5 -2 -9 4 -9 13 0 19
21 40 170 170 57 50 117 102 134 117 32 29 46 34 46 19z m-1165 -21 c4 -6 1
-17 -5 -25 -15 -18 1 -20 18 -3 6 6 15 9 18 5 11 -11 -18 -68 -42 -83 -29 -19
-56 -61 -63 -97 l-6 -29 -23 24 -22 24 35 70 c19 38 37 81 40 97 5 28 37 38
50 17z m5146 -47 c4 -29 16 -67 28 -86 24 -39 27 -67 9 -85 -19 -19 -26 -14
-33 21 -12 54 -35 88 -70 103 -48 20 -69 43 -54 60 16 19 36 18 48 -3 8 -15
11 -15 26 -3 16 13 15 14 -4 22 -33 12 -25 30 12 26 31 -3 32 -5 38 -55z
m-5257 11 c14 -36 4 -74 -33 -132 -79 -122 -272 -242 -389 -242 -35 0 -112 21
-112 31 0 5 19 9 43 9 49 0 169 37 245 76 106 53 222 187 222 257 0 21 16 22
24 1z m1316 11 c0 -2 -73 -79 -162 -170 -151 -154 -185 -180 -195 -148 -5 14
15 35 137 143 47 41 110 99 140 127 47 45 80 65 80 48z m4038 -85 c9 -19 40
-57 68 -85 75 -74 276 -175 350 -175 12 0 32 -9 45 -21 l24 -20 -67 5 c-143
11 -288 74 -379 165 -84 84 -120 166 -87 199 10 10 15 8 21 -10 5 -13 16 -39
25 -58z m-3988 55 c10 -12 -2 -31 -78 -112 -50 -54 -125 -132 -166 -173 -72
-70 -77 -73 -93 -57 -16 16 -14 20 37 75 126 132 275 282 281 282 4 0 12 -7
19 -15z m-2222 -62 c-3 -25 -14 -31 -188 -93 -224 -81 -240 -85 -240 -67 0 13
27 28 100 56 14 6 86 37 160 70 157 69 173 72 168 34z m2284 19 c2 -4 18 -18
36 -31 17 -12 32 -26 32 -31 0 -5 -48 -69 -107 -143 -60 -75 -128 -160 -152
-191 l-44 -56 -27 20 c-15 10 -38 35 -51 54 -13 20 -27 36 -31 36 -24 0 8 39
154 186 150 152 181 177 190 156z m-728 -73 c39 -29 59 -52 67 -78 6 -20 21
-46 32 -58 11 -13 15 -23 9 -23 -29 0 -64 23 -83 55 -16 26 -29 36 -57 40 -62
11 -61 10 -44 59 9 25 18 46 19 46 1 0 27 -19 57 -41z m835 -61 c-13 -18 -54
-73 -92 -123 -38 -49 -78 -103 -90 -119 -72 -96 -99 -125 -112 -119 -23 8 -19
19 33 86 70 89 157 202 211 274 39 52 48 60 60 48 11 -11 10 -18 -10 -47z m74
-12 c-3 -6 -17 -25 -29 -43 -13 -17 -24 -34 -24 -36 0 -5 -177 -276 -203 -312
-13 -18 -17 -19 -45 -5 l-30 15 156 207 c122 164 158 205 169 197 7 -6 10 -16
6 -23z m-2166 -6 c75 -39 127 -39 233 -1 44 16 80 28 80 26 0 -2 -20 -16 -45
-30 -111 -66 -224 -82 -300 -45 -29 15 -33 19 -14 15 39 -7 41 4 6 36 -41 36
-32 36 40 -1z m2218 0 c8 -13 -258 -430 -274 -430 -31 0 -13 33 202 368 46 70
59 82 72 62z m258 -127 c45 -13 56 -20 52 -32 -4 -9 -25 -65 -47 -126 -22 -60
-57 -157 -79 -215 -21 -58 -39 -110 -39 -115 0 -6 -4 -16 -9 -24 -7 -11 -17
-7 -47 17 -22 17 -71 44 -110 61 -70 28 -176 90 -188 109 -3 5 53 104 125 219
l129 211 78 -45 c42 -24 103 -51 135 -60z m2447 68 c-14 -27 -59 -61 -81 -61
-25 0 -26 40 -1 40 9 1 33 9 52 20 44 24 43 24 30 1z m-93 -103 c-20 -13 -77
23 -77 48 0 9 15 4 44 -14 24 -15 39 -30 33 -34z m-3249 -93 c84 -56 132 -98
132 -117 0 -5 -6 -6 -12 -2 -13 8 -92 60 -138 91 -63 42 -150 139 -150 167 0
3 18 -14 40 -38 23 -24 80 -70 128 -101z m3192 45 c-5 -9 -16 -23 -25 -30 -15
-12 -19 -11 -35 10 -41 54 -45 68 -25 90 19 21 19 21 56 -16 29 -28 36 -41 29
-54z m140 -6 c-68 -68 -157 -142 -200 -164 l-25 -13 20 23 c41 48 247 219 265
220 2 0 -25 -30 -60 -66z m-2334 46 c8 -8 -16 -83 -79 -248 -99 -263 -108
-284 -122 -294 -21 -16 -22 -7 -4 29 10 21 19 45 19 54 0 9 14 54 31 100 17
46 35 98 41 114 5 17 13 39 18 50 15 37 58 160 65 183 7 24 16 27 31 12z m307
-110 c149 -34 195 -40 347 -46 151 -7 166 -9 186 -29 29 -29 38 -117 27 -265
l-8 -115 -248 -3 -248 -2 -19 -43 c-10 -23 -21 -80 -25 -127 -10 -121 -34
-322 -40 -328 -9 -9 -5 183 4 260 5 40 12 100 16 133 l5 60 -109 18 c-60 10
-144 29 -187 43 -42 13 -79 22 -82 20 -2 -3 18 -21 45 -40 l50 -35 -5 -53 c-2
-29 3 -93 12 -143 21 -119 20 -139 -9 -231 -14 -43 -25 -90 -26 -104 -1 -21
-2 -20 -11 10 -6 19 -8 60 -5 90 l5 55 -28 -60 c-48 -103 -93 -305 -68 -305 5
0 -3 -20 -18 -45 -21 -36 -24 -48 -14 -60 16 -19 -61 -134 -155 -230 -59 -61
-75 -72 -105 -73 -27 -1 -42 -10 -76 -46 -32 -36 -49 -46 -73 -46 -23 0 -31 5
-31 18 0 10 -7 28 -16 40 -11 16 -13 27 -6 35 8 10 -12 12 -93 9 -93 -4 -108
-2 -137 17 -31 19 -31 21 -9 21 20 0 22 2 11 15 -18 22 -8 27 25 15 16 -6 61
-11 102 -12 68 0 77 2 140 40 72 44 118 92 88 92 -27 0 -54 -19 -70 -50 -27
-52 -107 -59 -157 -13 -13 12 -30 14 -76 8 l-59 -7 -29 42 c-16 22 -34 48 -41
58 -10 14 -10 10 -4 -18 4 -20 13 -45 20 -58 6 -12 9 -22 5 -22 -12 0 -44 32
-44 45 0 6 -14 33 -31 58 -28 43 -30 50 -19 82 6 19 18 35 26 35 17 0 18 -22
2 -38 -8 -8 -8 -12 -1 -12 6 0 16 7 24 16 10 12 10 20 1 35 -14 22 -8 39 14
39 14 0 54 55 54 75 0 6 -9 -5 -21 -24 -28 -47 -35 -32 -10 24 27 61 119 211
139 227 9 7 6 -1 -6 -19 -30 -42 -72 -138 -72 -164 0 -28 16 -15 23 19 9 46
87 151 146 198 31 24 95 65 144 90 78 40 87 48 87 73 0 16 -10 37 -25 51 -25
24 -34 73 -15 85 6 4 10 -5 10 -19 0 -14 4 -26 9 -26 12 0 41 29 41 41 0 5 5
9 10 9 6 0 10 -21 10 -46 0 -66 24 -109 70 -128 35 -14 43 -14 82 0 24 8 58
29 75 46 37 36 44 21 13 -29 -24 -41 -67 -63 -122 -63 -113 0 -224 -36 -288
-93 -65 -57 -120 -155 -120 -211 0 -45 -19 -96 -36 -96 -17 0 -34 31 -34 64 0
38 -17 32 -36 -11 -45 -107 32 -233 141 -233 48 0 205 81 261 135 23 22 46 54
49 70 4 17 22 46 40 65 39 43 56 73 94 170 16 41 54 126 85 189 61 125 70 175
37 205 -10 10 -22 32 -25 50 -4 18 -17 43 -31 56 -26 24 -26 24 15 125 4 11
29 79 55 150 25 72 55 153 65 180 11 28 24 62 29 77 l10 26 111 -38 c62 -21
135 -44 163 -50z m1796 47 c22 -25 21 -51 -4 -61 -24 -9 -57 59 -38 77 11 11
18 8 42 -16z m-45 -64 c8 -19 -42 -76 -86 -99 l-26 -14 25 48 c45 81 73 102
87 65z m-2798 -178 c59 0 64 -19 8 -34 -37 -10 -224 8 -224 21 0 18 48 27 105
20 33 -4 83 -7 111 -7z m2941 -8 c11 -10 10 -13 -4 -14 -10 0 -63 -4 -118 -8
-91 -7 -102 -6 -117 11 -16 18 -15 19 41 16 31 -2 73 1 92 7 39 12 88 6 106
-12z m1676 -108 c165 -107 277 -180 437 -285 41 -27 80 -51 85 -54 10 -5 81
-51 249 -162 48 -32 89 -58 90 -58 3 0 224 -144 254 -165 24 -17 27 -31 13
-54 -10 -15 -20 -8 -381 237 -151 103 -330 225 -585 397 -104 70 -229 155
-277 187 -49 33 -88 62 -88 64 0 17 54 -11 203 -107z m-4526 49 c24 -28 35
-56 24 -63 -5 -2 -14 1 -19 8 -6 7 -27 19 -47 27 -39 15 -43 24 -17 39 26 15
36 13 59 -11z m154 -118 c19 -63 19 -70 5 -104 l-15 -37 26 21 c32 25 63 26
63 3 0 -10 -16 -35 -34 -57 l-34 -39 -37 56 c-45 68 -58 140 -30 161 14 10 17
21 12 50 -10 62 20 25 44 -54z m44 77 c12 -10 14 -16 7 -21 -22 -13 -12 -25
38 -51 48 -24 95 -79 84 -97 -3 -4 -20 -8 -39 -8 -63 0 -125 75 -125 152 0 41
6 45 35 25z m-1315 -101 c0 -4 -210 -199 -385 -356 -76 -69 -203 -183 -280
-255 -78 -71 -204 -186 -280 -255 -77 -69 -166 -150 -198 -180 -56 -52 -59
-54 -73 -35 -13 17 -12 22 13 46 52 49 299 273 423 384 68 61 158 141 200 179
143 132 187 171 315 286 71 63 152 136 179 162 40 37 54 44 68 37 10 -5 18
-11 18 -13z m1500 -6 c0 -5 -2 -10 -4 -10 -3 0 -8 5 -11 10 -3 6 -1 10 4 10 6
0 11 -4 11 -10z m90 -70 c19 -15 21 -20 8 -20 -9 0 -24 7 -32 16 -31 30 -13
33 24 4z m908 -7 c-64 -2 -172 -2 -240 0 -68 1 -15 3 117 3 132 0 187 -2 123
-3z m-2423 -139 c-78 -72 -92 -82 -104 -69 -12 12 -3 26 69 105 l83 91 21 -21
21 -22 -90 -84z m1480 95 c14 -12 25 -15 35 -9 33 21 54 -34 24 -64 -24 -24
-34 -19 -28 14 6 25 3 30 -20 36 -15 3 -32 1 -40 -5 -17 -14 -42 -5 -51 17 -8
20 20 43 43 35 10 -3 26 -14 37 -24z m329 12 c29 -32 37 -125 31 -351 -5 -203
-10 -269 -36 -520 -6 -58 -13 -134 -16 -169 -5 -54 -12 -73 -41 -110 -44 -58
-92 -158 -92 -193 0 -15 -15 -43 -36 -69 -20 -24 -43 -60 -51 -81 -21 -53 -56
-78 -109 -78 -51 0 -54 -7 -18 -44 39 -38 69 -34 96 14 20 35 38 51 38 34 0
-12 -24 -51 -51 -82 -35 -40 -35 -44 -6 -78 l23 -26 40 20 c22 11 45 26 50 34
6 7 30 67 53 133 24 66 49 134 57 150 29 65 74 215 93 315 27 137 43 401 47
780 2 168 4 310 4 316 0 18 31 26 46 13 12 -10 13 -54 7 -255 -5 -194 -3 -249
7 -269 11 -21 10 -49 -4 -177 -10 -84 -24 -207 -31 -273 -18 -158 -21 -170
-65 -305 -21 -63 -50 -169 -65 -235 -26 -112 -48 -171 -85 -219 -34 -46 -89
-96 -104 -96 -8 0 -39 25 -68 55 -28 30 -58 55 -65 55 -21 0 -73 29 -73 40 0
6 10 10 22 10 21 0 21 1 -5 28 -45 47 -30 78 48 100 48 14 92 53 101 90 4 15
18 44 31 66 96 152 158 392 188 728 16 176 16 513 0 600 -12 63 6 85 39 49z
m723 -13 c-3 -7 -5 -2 -5 12 0 14 2 19 5 13 2 -7 2 -19 0 -25z m-1084 -79 c27
-14 67 -50 67 -60 0 -4 -17 -23 -37 -43 -31 -30 -45 -36 -80 -36 -74 0 -103
52 -68 120 13 26 21 30 56 30 22 0 50 -5 62 -11z m2002 -29 c8 -16 12 -36 8
-46 -5 -15 -8 -14 -23 6 -16 22 -16 21 -29 -22 -7 -24 -19 -53 -26 -64 -14
-21 -12 -23 37 -39 156 -51 220 -106 318 -275 24 -41 70 -103 103 -138 55 -57
59 -64 49 -87 -10 -21 -8 -28 14 -51 22 -21 25 -32 21 -60 -7 -43 -44 -104
-62 -104 -12 0 -12 6 1 35 15 37 19 75 7 74 -5 0 -21 -27 -36 -59 l-28 -60
-29 15 c-42 22 -75 19 -127 -12 l-45 -26 -54 18 c-50 17 -53 19 -38 36 10 11
12 19 5 24 -18 10 -111 23 -111 14 0 -21 90 -81 148 -99 70 -22 193 -27 238
-10 37 14 39 8 10 -27 -45 -53 -151 -66 -227 -27 l-26 13 4 -47 c4 -38 1 -51
-17 -69 -11 -13 -27 -23 -34 -23 -19 0 -55 31 -69 60 -9 18 -29 30 -69 43 -64
20 -141 88 -218 191 l-44 58 17 67 c9 36 17 77 17 91 0 52 16 54 45 3 34 -58
34 -56 85 -114 22 -26 50 -49 60 -52 15 -4 8 11 -30 59 -53 68 -59 81 -35 90
12 5 7 22 -29 91 l-44 85 34 -33 c19 -18 43 -51 55 -73 50 -96 96 -135 222
-187 82 -34 120 -36 164 -9 38 23 83 105 83 152 0 32 -32 98 -47 98 -5 0 -7
-21 -4 -46 4 -51 -7 -69 -37 -60 -16 5 -20 18 -24 74 -4 46 -14 84 -33 122
-52 105 -185 201 -280 204 -42 1 -44 2 -38 26 3 14 21 48 39 75 19 28 34 60
34 73 0 20 2 21 20 10 17 -11 22 -10 30 2 5 8 10 23 10 33 0 24 16 13 35 -23z
m-1398 -22 c-3 -8 -6 -5 -6 6 -1 11 2 17 5 13 3 -3 4 -12 1 -19z m470 -70 c-2
-13 -4 -5 -4 17 -1 22 1 32 4 23 2 -10 2 -28 0 -40z m-490 -100 c-3 -8 -6 -5
-6 6 -1 11 2 17 5 13 3 -3 4 -12 1 -19z m-1749 -78 c-7 -10 -59 -79 -114 -152
-56 -73 -168 -221 -250 -328 -81 -107 -188 -248 -238 -314 -50 -65 -108 -142
-129 -170 -20 -28 -43 -58 -50 -66 -6 -8 -58 -76 -114 -150 -56 -74 -156 -207
-223 -295 -67 -88 -173 -227 -235 -310 -63 -82 -168 -222 -235 -310 -67 -88
-172 -226 -232 -308 -105 -139 -128 -161 -143 -137 -5 9 53 102 75 120 4 3 67
86 141 185 74 99 177 236 229 304 118 156 481 635 665 881 77 102 142 187 145
190 3 3 34 43 69 90 34 47 72 98 84 114 40 52 287 379 415 548 118 158 126
166 140 147 12 -17 12 -23 0 -39z m3488 -137 c53 -107 53 -109 -5 -23 -28 41
-51 78 -51 83 0 4 -11 26 -25 50 l-26 42 34 -37 c18 -20 51 -72 73 -115z
m-2126 -266 c-6 -21 -24 -59 -41 -84 -16 -26 -29 -59 -29 -74 0 -15 -4 -31
-10 -34 -5 -3 -30 -46 -55 -94 -73 -140 -172 -231 -272 -247 -82 -13 -123 18
-82 62 33 35 75 49 105 35 38 -17 59 -14 93 15 38 32 39 44 5 44 -24 0 -18 8
58 89 103 110 174 244 220 416 l13 50 3 -70 c2 -38 -2 -87 -8 -108z m867 101
c-3 -8 -6 -5 -6 6 -1 11 2 17 5 13 3 -3 4 -12 1 -19z m0 -250 c-2 -35 -3 -9
-3 57 0 66 1 94 3 63 2 -32 2 -86 0 -120z m649 -76 c20 -24 66 -66 102 -93 49
-37 61 -50 48 -55 -9 -3 -23 -4 -31 0 -22 8 -19 -20 5 -44 17 -17 29 -19 92
-14 69 6 74 5 97 -19 17 -19 22 -33 17 -51 -7 -30 -45 -40 -110 -31 -71 11
-173 106 -252 237 -31 50 -39 74 -41 123 l-4 60 20 -35 c11 -19 36 -54 57 -78z
m-92 -142 c17 -66 33 -189 24 -180 -10 9 -46 125 -53 167 -6 36 1 91 10 81 1
-2 10 -32 19 -68z m-2054 -3 c0 -5 -39 -118 -60 -172 -10 -27 -33 -90 -50
-140 -17 -49 -35 -99 -40 -110 -5 -11 -31 -82 -57 -157 -26 -76 -52 -138 -58
-138 -36 1 -38 27 -5 105 5 11 43 112 85 225 154 410 145 390 166 390 10 0 19
-1 19 -3z m2716 -51 c3 -11 12 -34 20 -51 7 -16 47 -115 89 -220 90 -222 250
-618 294 -725 17 -41 31 -78 31 -81 0 -4 -9 -9 -20 -12 -11 -3 -20 -1 -20 5 0
5 -13 40 -29 76 -16 37 -63 153 -105 257 -43 105 -81 199 -86 210 -5 11 -21
49 -35 85 -14 36 -30 74 -35 85 -5 11 -29 70 -54 130 -24 61 -58 143 -75 184
-35 82 -35 126 0 95 10 -9 21 -26 25 -38z m-676 -183 c44 -84 94 -130 156
-144 30 -7 54 -16 54 -22 0 -5 -11 -22 -25 -39 -29 -35 -31 -44 -8 -56 14 -8
11 -13 -18 -32 -19 -12 -49 -42 -67 -65 -44 -58 -82 -73 -127 -52 -28 13 -35
24 -44 67 -21 96 -9 146 19 79 25 -59 110 -100 138 -66 6 6 13 24 17 40 7 25
5 27 -24 27 -34 0 -52 23 -33 42 9 9 16 7 30 -5 10 -9 31 -17 45 -17 20 0 28
6 33 26 9 37 -23 52 -98 46 -13 -1 -18 5 -18 21 0 13 -16 49 -35 81 -32 53
-47 116 -27 116 4 0 18 -21 32 -47z m-543 -410 c-2 -16 -4 -3 -4 27 0 30 2 43
4 28 2 -16 2 -40 0 -55z m-722 -77 c-10 -119 7 -147 204 -348 63 -65 111 -118
107 -118 -42 0 -309 258 -345 333 -21 44 -22 53 -12 90 18 61 43 127 49 127 2
0 1 -38 -3 -84z m1443 -83 c84 -331 120 -472 126 -491 5 -16 0 -22 -24 -30
-27 -10 -30 -9 -35 11 -8 38 -35 160 -45 202 -5 22 -21 90 -35 150 -14 61 -32
137 -40 170 -26 110 -27 125 -15 140 7 8 15 15 19 15 4 0 26 -75 49 -167z
m-1519 -36 c1 -35 35 -103 69 -139 34 -37 15 -36 -25 1 -57 52 -86 135 -66
187 6 16 7 16 14 -2 4 -10 8 -32 8 -47z m1229 -69 c-3 -31 -4 -32 -15 -12 -9
16 -10 30 0 60 11 37 11 37 15 12 2 -15 2 -42 0 -60z m-1030 -220 c24 -26 87
-79 138 -118 52 -39 107 -87 122 -107 69 -89 63 -86 135 -87 l66 -1 56 55 55
54 0 -34 c0 -48 -9 -58 -68 -80 -185 -70 -405 58 -543 316 -46 84 -39 84 39 2z"/>
<path d="M4860 9695 c-2 -27 -4 -64 -5 -81 -1 -16 -5 -66 -9 -110 -4 -44 -9
-113 -11 -154 -2 -41 -7 -97 -10 -125 -3 -27 -7 -81 -10 -120 -9 -112 -21
-240 -31 -325 -24 -202 -30 -244 -39 -300 -4 -22 -8 -50 -10 -63 -1 -12 -8
-51 -14 -87 -7 -36 -14 -75 -16 -88 -2 -12 -6 -30 -9 -40 -3 -9 -7 -28 -10
-42 -30 -159 -60 -275 -122 -475 -67 -213 -177 -471 -285 -665 -19 -36 -57
-105 -84 -155 -79 -149 -116 -217 -150 -275 -18 -30 -46 -80 -62 -110 -17 -30
-40 -73 -53 -95 -13 -22 -37 -65 -53 -95 -17 -30 -40 -71 -52 -90 -39 -62
-192 -372 -233 -471 -22 -53 -54 -143 -72 -200 -41 -134 -40 -131 -45 -173 -3
-20 -9 -54 -14 -77 -10 -44 -7 -263 4 -319 4 -19 14 -60 23 -90 9 -30 16 -57
17 -60 8 -48 105 -242 161 -322 100 -143 271 -319 409 -421 50 -37 95 -71 100
-75 32 -26 222 -131 318 -177 97 -45 296 -120 350 -130 9 -2 21 -7 27 -10 9
-6 123 -33 167 -40 11 -2 29 -6 40 -9 30 -9 260 -43 298 -44 94 -1 275 -17
275 -23 0 -4 -7 -37 -15 -73 -9 -36 -17 -78 -19 -93 -2 -16 -9 -57 -15 -93 -6
-36 -13 -82 -15 -102 -3 -21 -8 -53 -12 -72 -7 -42 -7 -41 -29 -371 -16 -237
-17 -317 -6 -900 7 -352 10 -759 6 -905 -7 -270 4 -542 25 -613 7 -25 17 -37
29 -37 14 0 22 15 34 63 18 69 27 123 33 182 2 22 8 78 14 125 5 47 12 114 15
150 3 36 7 74 10 85 2 11 7 52 10 90 3 39 8 86 10 105 3 19 7 55 10 80 2 25 9
88 15 140 7 52 13 113 16 135 11 110 46 349 60 418 3 16 7 38 9 50 3 18 20
109 29 152 3 15 30 129 31 135 26 98 165 509 195 575 5 11 30 70 56 130 48
112 161 341 235 475 22 41 73 138 111 215 39 77 72 141 73 143 2 2 52 20 111
41 60 21 134 50 164 66 74 37 190 106 190 113 0 2 -49 2 -109 -2 -87 -6 -117
-4 -145 8 -43 18 -44 28 -8 75 49 64 74 105 117 186 35 67 102 225 109 260 1
6 9 35 18 65 17 58 32 131 30 141 -1 4 3 22 8 40 35 120 33 373 -5 607 -16 99
-108 304 -190 423 -72 103 -127 162 -275 299 -102 93 -388 272 -543 339 -23
10 -67 30 -97 44 -30 13 -88 37 -128 51 -41 14 -93 37 -115 51 -46 27 -97 69
-97 79 0 3 -8 14 -17 24 -54 57 -103 142 -156 272 -56 137 -156 436 -162 488
-10 84 -28 130 -63 156 -29 22 -46 15 -78 -32 -19 -28 -29 -64 -40 -156 -10
-81 -46 -287 -75 -431 -25 -124 -23 -113 -48 -215 -12 -47 -23 -92 -26 -100
-2 -8 -13 -51 -24 -96 -25 -92 -26 -99 -36 -174 -12 -88 -14 -112 -19 -375 -5
-255 4 -380 38 -535 23 -101 80 -233 139 -319 37 -56 136 -155 196 -199 25
-17 46 -31 47 -29 1 1 -2 25 -7 52 -18 95 6 189 64 252 33 36 46 43 76 43 20
0 43 -6 51 -13 29 -23 68 -82 83 -127 14 -42 27 -76 48 -125 19 -45 80 -234
90 -281 21 -99 35 -231 33 -312 -1 -46 -3 -85 -5 -87 -4 -3 -55 30 -328 211
-73 49 -144 96 -158 105 -13 9 -33 26 -43 37 -11 11 -27 26 -38 34 -10 7 -31
31 -47 53 -17 22 -32 42 -35 45 -10 9 -77 115 -109 171 -40 72 -109 229 -128
294 -34 117 -64 232 -69 265 -2 19 -6 42 -9 50 -6 20 -13 75 -25 190 -20 197
-8 524 25 700 4 19 9 44 11 55 15 79 25 124 53 230 47 179 65 278 78 430 2 33
8 98 13 145 9 88 6 1292 -3 1307 -3 5 -8 145 -12 313 -13 543 -21 796 -25 745z
m381 -2440 c54 -203 144 -426 210 -522 109 -158 268 -277 445 -334 113 -36
304 -136 470 -246 31 -21 68 -46 82 -55 14 -9 28 -20 31 -25 3 -5 17 -17 31
-26 35 -24 217 -204 249 -247 14 -19 28 -37 31 -40 3 -3 22 -30 43 -61 269
-411 263 -914 -18 -1479 -89 -178 -89 -179 -231 -395 -194 -296 -286 -456
-406 -705 -43 -91 -83 -174 -88 -185 -20 -44 -122 -311 -125 -325 -2 -8 -14
-49 -28 -90 -29 -85 -65 -206 -71 -235 -3 -11 -10 -42 -16 -70 -6 -27 -13 -58
-15 -68 -2 -10 -7 -28 -11 -40 -4 -12 -8 -31 -10 -42 -2 -11 -12 -72 -24 -135
-27 -149 -40 -251 -55 -425 -6 -76 -16 -158 -36 -315 -6 -47 -12 -99 -14 -116
-2 -18 -7 -58 -11 -90 -4 -33 -7 -62 -6 -66 1 -4 -3 -31 -8 -60 -6 -29 -12
-75 -14 -103 -8 -84 -17 -159 -21 -175 -2 -8 -7 -46 -11 -85 -3 -38 -7 -71 -8
-73 -8 -7 -18 576 -22 1263 -3 635 -1 818 11 985 18 236 22 291 30 340 3 19 8
50 10 68 2 18 9 69 16 115 6 45 13 93 14 107 3 28 19 127 35 215 30 169 58
374 68 495 9 111 9 384 0 480 -7 67 -12 104 -33 220 -8 49 -42 167 -81 287
-102 313 -245 440 -352 313 -18 -20 -62 -113 -68 -142 -2 -13 -9 -45 -14 -72
-6 -27 -12 -52 -15 -54 -17 -18 -111 125 -160 243 -56 134 -98 299 -111 440
-4 33 -8 63 -10 67 -11 18 -14 339 -5 458 15 181 20 215 52 337 20 77 73 244
88 278 5 11 13 34 17 50 4 17 9 35 10 40 26 81 80 318 98 425 3 14 5 30 6 35
2 9 28 -73 51 -160z"/>
<path d="M4363 9283 c-25 -10 -13 -43 25 -67 77 -50 101 -41 67 24 -22 42 -56
58 -92 43z"/>
<path d="M6061 9273 c-17 -17 -31 -40 -31 -50 0 -16 6 -19 33 -15 56 8 72 37
43 77 -13 18 -15 18 -45 -12z"/>
<path d="M6294 8708 c-43 -40 -70 -76 -62 -83 2 -2 32 25 68 61 71 71 66 89
-6 22z"/>
<path d="M4120 8754 c0 -3 36 -41 80 -83 44 -43 80 -76 80 -74 0 11 -30 54
-65 91 -37 40 -95 81 -95 66z"/>
<path d="M3008 7106 c-21 -16 -23 -51 -3 -86 l13 -25 7 28 c6 20 15 30 37 34
l29 6 -21 19 c-11 10 -20 23 -20 28 0 14 -22 12 -42 -4z"/>
<path d="M2870 7093 c-116 -39 -201 -77 -214 -98 -22 -33 -20 -88 4 -116 l19
-24 1 50 c1 37 4 45 10 30 5 -11 9 -33 9 -48 2 -49 29 -87 77 -108 56 -24 89
-26 59 -4 -68 50 -105 105 -105 155 0 65 14 69 63 19 24 -24 49 -53 55 -64 6
-11 13 -17 16 -15 3 3 20 52 37 109 28 87 31 104 18 112 -15 10 -26 10 -49 2z"/>
<path d="M7440 7106 c0 -8 -10 -22 -22 -30 -18 -13 -19 -16 -6 -16 10 0 33
-15 51 -34 l35 -34 6 45 c3 24 1 53 -4 64 -13 22 -60 26 -60 5z"/>
<path d="M7785 6640 c-3 -5 3 -10 15 -10 12 0 18 5 15 10 -3 6 -10 10 -15 10
-5 0 -12 -4 -15 -10z"/>
<path d="M1288 6218 c-29 -35 -23 -75 12 -93 17 -9 40 -13 50 -10 19 6 19 6
-1 26 -12 12 -19 33 -19 59 0 45 -15 52 -42 18z"/>
<path d="M9163 6182 c-18 -33 -33 -62 -33 -66 0 -16 54 -3 75 19 29 29 32 55
8 84 -18 22 -18 22 -50 -37z"/>
<path d="M9130 4524 c0 -9 60 -114 65 -114 3 0 11 13 20 29 14 28 14 31 -8 54
-20 23 -77 46 -77 31z"/>
<path d="M7750 4664 c19 -9 53 -19 75 -21 l40 -5 -24 18 c-13 9 -47 19 -75 21
l-51 3 35 -16z"/>
<path d="M7595 4190 c-31 -33 -21 -41 15 -12 13 10 21 24 19 31 -3 7 -15 0
-34 -19z"/>
<path d="M7486 4095 c4 -9 15 -20 25 -25 25 -14 37 9 14 27 -25 18 -46 17 -39
-2z"/>
<path d="M4556 2753 c-41 -110 -90 -204 -140 -272 -23 -33 -53 -85 -66 -117
-13 -33 -29 -66 -37 -75 -7 -8 -13 -29 -13 -46 0 -22 -11 -44 -40 -75 -22 -23
-40 -46 -40 -50 -1 -33 70 41 138 144 61 91 191 350 216 430 9 31 16 75 14 98
l-3 42 -29 -79z"/>
<path d="M4251 2023 c0 -7 -31 -42 -68 -78 -37 -35 -65 -67 -62 -70 9 -8 100
56 122 86 11 15 17 36 14 50 -2 13 -5 18 -6 12z"/>
<path d="M6195 2040 c4 -8 26 -39 48 -68 44 -58 81 -82 124 -82 l28 1 -33 14
c-19 8 -66 45 -104 82 -39 38 -68 61 -63 53z"/>
<path d="M3271 8434 c0 -11 3 -14 6 -6 3 7 2 16 -1 19 -3 4 -6 -2 -5 -13z"/>
<path d="M3412 8008 c-11 -18 -24 -51 -27 -73 -8 -41 -2 -42 21 -3 41 71 48
88 37 99 -7 7 -16 1 -31 -23z"/>
<path d="M7046 8014 c-8 -20 20 -80 40 -88 13 -5 13 -2 -1 16 -8 13 -15 37
-15 55 0 35 -14 44 -24 17z"/>
<path d="M3585 7969 c-9 -14 -7 -15 40 -23 l40 -6 -24 20 c-26 22 -46 26 -56
9z"/>
<path d="M6844 7948 l-19 -23 23 19 c21 18 27 26 19 26 -2 0 -12 -10 -23 -22z"/>
<path d="M3507 7896 c-61 -30 -69 -38 -29 -30 42 8 41 -8 0 -27 -37 -16 -78
-85 -78 -131 0 -49 20 -78 54 -78 l31 0 -25 19 c-20 16 -22 21 -11 35 18 22
38 20 46 -3 8 -27 32 -30 111 -14 100 20 104 22 72 39 -34 18 -35 34 -3 64 20
19 27 21 40 10 8 -7 15 -18 15 -25 0 -18 37 -61 45 -53 17 16 -11 57 -74 111
-27 23 -31 30 -21 42 10 13 8 15 -12 15 -13 0 -29 -5 -34 -10 -12 -12 -44 -3
-44 11 0 5 9 9 20 9 23 0 26 10 8 28 -18 18 -58 14 -111 -12z"/>
<path d="M6894 7909 c-28 -10 -40 -29 -20 -29 21 0 20 -19 0 -27 -10 -4 -22 1
-29 10 -16 22 -25 21 -25 -2 0 -11 -20 -36 -47 -58 -50 -41 -72 -81 -65 -119
4 -23 5 -23 34 13 16 21 32 50 35 65 5 28 6 28 34 11 36 -21 36 -30 3 -64
l-26 -27 34 0 c18 0 53 -8 77 -16 24 -9 45 -16 47 -16 2 0 20 14 39 32 28 24
39 28 45 18 12 -19 2 -38 -23 -46 -20 -7 -19 -8 12 -16 26 -7 37 -6 52 8 10 9
19 25 19 34 0 30 -51 114 -92 153 -41 38 -35 47 18 27 36 -14 42 -6 10 15 -39
26 -108 44 -132 34z"/>
<path d="M3392 7822 c-12 -15 -28 -47 -36 -72 l-14 -45 -10 35 c-10 32 -11 30
-7 -25 2 -35 1 -48 -3 -31 -8 33 -16 27 -46 -31 -9 -18 -32 -49 -52 -68 -32
-32 -33 -35 -12 -35 12 0 39 17 60 37 37 36 39 37 44 15 4 -12 10 -22 15 -22
13 0 36 51 44 100 4 24 16 71 27 103 10 33 18 61 16 62 -2 2 -13 -9 -26 -23z"/>
<path d="M7073 7818 c4 -13 13 -50 20 -83 16 -67 49 -149 65 -159 5 -3 17 6
26 19 l17 26 41 -36 c67 -57 78 -41 16 23 -34 34 -60 71 -66 92 l-9 35 -10
-35 -10 -35 -11 25 c-6 14 -16 47 -23 73 -12 48 -31 77 -51 77 -6 0 -8 -10 -5
-22z"/>
<path d="M2660 4666 c8 -8 31 -17 50 -20 l35 -6 -40 19 c-48 23 -64 26 -45 7z"/>
<path d="M2439 4555 c-25 -13 -52 -31 -60 -41 -10 -12 2 -9 39 11 29 16 57 34
63 42 15 17 12 16 -42 -12z"/>
<path d="M2841 4219 c9 -13 35 -35 59 -48 56 -31 44 -13 -22 35 -44 31 -50 33
-37 13z"/>
<path d="M2783 3861 c-52 -24 -83 -79 -83 -147 0 -40 -2 -45 -15 -34 -8 7 -15
24 -15 39 -1 23 -2 24 -11 8 -6 -9 -9 -36 -7 -58 3 -40 4 -41 73 -71 80 -34
136 -53 183 -63 32 -7 33 -6 26 22 -4 15 -17 55 -30 87 -13 33 -24 70 -24 83
0 13 -3 23 -6 23 -3 0 -31 -23 -61 -50 -31 -28 -61 -49 -67 -47 -13 4 -20 60
-12 93 8 30 62 92 101 116 24 15 26 18 10 18 -11 0 -39 -9 -62 -19z"/>
<path d="M2995 3584 c-15 -39 -15 -48 -4 -55 21 -13 45 -11 59 6 11 13 9 22
-6 51 -10 20 -22 37 -25 40 -4 2 -14 -17 -24 -42z"/>
<path d="M3218 3049 c24 -23 54 -62 67 -88 13 -25 30 -55 39 -66 14 -19 14
-17 5 18 -19 72 -3 60 20 -14 13 -41 32 -82 43 -91 24 -21 46 -24 29 -4 -13
15 -35 90 -46 151 -8 44 -31 95 -44 95 -5 0 -11 -10 -14 -22 -6 -20 -8 -19
-51 20 -26 24 -55 42 -68 42 -21 0 -19 -4 20 -41z"/>
<path d="M7251 3074 c-12 -9 -26 -27 -31 -40 -11 -29 -30 -32 -30 -5 0 33 -39
13 -62 -32 -35 -69 -75 -207 -60 -207 18 0 53 43 59 71 3 16 10 32 14 35 5 3
9 16 9 29 0 34 18 41 26 9 7 -26 8 -25 24 19 10 26 32 65 50 87 36 45 36 58 1
34z"/>
<path d="M3425 2985 c-14 -13 -25 -34 -25 -46 0 -39 41 -109 78 -134 l37 -25
-29 0 c-28 0 -28 -1 -12 -19 23 -25 75 -34 117 -19 l34 12 -35 9 -34 9 24 19
c34 25 48 24 62 -6 8 -17 19 -25 37 -25 19 0 22 3 13 12 -21 21 -13 39 38 87
39 36 50 54 50 77 l-1 29 -19 -35 c-24 -45 -59 -82 -73 -77 -6 2 -20 16 -31
31 -18 24 -19 29 -6 36 8 5 24 16 35 24 19 14 17 15 -27 16 -26 0 -63 8 -83
17 -35 17 -35 17 -65 -12 -25 -24 -32 -26 -45 -15 -11 9 -14 22 -10 37 7 29 0
29 -30 -2z"/>
<path d="M7028 2990 c12 -12 22 -27 22 -35 0 -23 -47 -18 -64 6 -12 18 -21 20
-48 14 -18 -4 -62 -9 -97 -12 l-63 -5 31 -19 c26 -15 32 -25 29 -47 -5 -45
-42 -42 -72 7 -27 42 -44 57 -53 47 -12 -12 26 -75 66 -106 21 -18 42 -44 46
-59 7 -26 7 -26 16 -3 10 25 24 27 59 7 24 -14 24 -14 3 -15 -37 0 -35 -18 3
-30 47 -16 95 -6 125 26 l24 27 -32 -17 c-57 -29 -68 -20 -31 24 42 52 98 140
98 157 0 19 -41 53 -64 53 -19 0 -19 -1 2 -20z"/>
<path d="M3386 2700 c10 -37 30 -75 48 -89 14 -12 16 -10 16 13 0 16 -13 40
-36 64 -32 33 -35 35 -28 12z"/>
<path d="M3593 2693 c-7 -2 -13 -11 -13 -18 0 -22 20 -28 38 -12 10 9 29 20
42 26 23 9 21 10 -15 10 -22 -1 -46 -3 -52 -6z"/>
<path d="M6845 2682 c12 -9 25 -26 30 -37 8 -19 9 -19 13 4 4 26 -19 51 -47
51 -13 -1 -12 -4 4 -18z"/>
<path d="M7051 2661 c-11 -19 -11 -28 0 -50 l13 -26 4 28 c2 15 2 37 0 50 l-3
22 -14 -24z"/>
</g>
</svg>
